<svg width="560" height="339" viewBox="0 0 560 339" fill="none" xmlns="http://www.w3.org/2000/svg">
<rect x="0.000488281" y="0.599121" width="560" height="337.802" rx="14.2627" fill="url(#paint0_linear_357_582)"/>
<mask id="mask0_357_582" style="mask-type:alpha" maskUnits="userSpaceOnUse" x="9" y="12" width="542" height="316">
<rect x="9.75879" y="12.2346" width="540.483" height="314.906" rx="1.12601" fill="#8F8F8F"/>
</mask>
<g mask="url(#mask0_357_582)">
<rect x="9.7583" y="12.2344" width="540.483" height="314.906" rx="1.12601" fill="white"/>
<g filter="url(#filter0_d_357_582)">
<rect x="9.75781" y="12.2344" width="540.483" height="15.0134" fill="#ECECEC"/>
<circle cx="21.7688" cy="19.7412" r="3.00268" fill="white"/>
<circle cx="32.2781" cy="19.7412" r="3.00268" fill="white"/>
<circle cx="42.7873" cy="19.7412" r="3.00268" fill="white"/>
<rect x="166.272" y="15.6123" width="228.204" height="8.25737" rx="3.75335" fill="white"/>
<path fill-rule="evenodd" clip-rule="evenodd" d="M387.113 20.5818L387.113 20.8276L385.557 22.3803L385.094 21.9167L386.646 20.3609L386.892 20.3609L386.979 20.2768C386.674 19.9221 386.491 19.4616 386.491 18.9606C386.491 17.8435 387.396 16.938 388.513 16.938C389.63 16.938 390.536 17.8435 390.536 18.9606C390.536 20.0777 389.63 20.9832 388.513 20.9832C388.012 20.9832 387.552 20.7996 387.197 20.4947L387.113 20.5818ZM388.513 17.5604C387.739 17.5604 387.113 18.1858 387.113 18.9606C387.113 19.7355 387.739 20.3609 388.513 20.3609C389.288 20.3609 389.914 19.7355 389.914 18.9606C389.914 18.1858 389.288 17.5604 388.513 17.5604Z" fill="#8B8B8B"/>
<path d="M257.686 18.5718L257.123 20.2023L256.636 18.5718H256.172L256.884 20.7383H257.33L257.893 19.0898L258.469 20.7383H258.906L259.609 18.5718H259.163L258.686 20.2023L258.123 18.5718H257.686ZM261.257 18.5718L260.694 20.2023L260.208 18.5718H259.744L260.456 20.7383H260.901L261.464 19.0898L262.041 20.7383H262.478L263.181 18.5718H262.735L262.257 20.2023L261.694 18.5718H261.257ZM264.829 18.5718L264.266 20.2023L263.779 18.5718H263.316L264.027 20.7383H264.473L265.036 19.0898L265.613 20.7383H266.049L266.752 18.5718H266.306L265.829 20.2023L265.266 18.5718H264.829ZM266.954 20.45C266.954 20.6257 267.09 20.7608 267.265 20.7608C267.441 20.7608 267.58 20.6257 267.58 20.45C267.58 20.2744 267.441 20.1347 267.265 20.1347C267.09 20.1347 266.954 20.2744 266.954 20.45ZM268.393 21.6436L269.803 18.5718H269.348L268.7 20.0672L268.024 18.5718H267.537L268.47 20.4996L267.929 21.6436H268.393ZM271.05 20.4275C270.69 20.4275 270.375 20.1573 270.375 19.6528C270.375 19.1529 270.69 18.8826 271.05 18.8826C271.411 18.8826 271.726 19.1529 271.726 19.6528C271.726 20.1573 271.411 20.4275 271.05 20.4275ZM271.05 18.5043C270.402 18.5043 269.942 18.9952 269.942 19.6528C269.942 20.3149 270.402 20.8058 271.05 20.8058C271.699 20.8058 272.158 20.3149 272.158 19.6528C272.158 18.9952 271.699 18.5043 271.05 18.5043ZM274.106 20.477C274.106 20.5671 274.115 20.6887 274.124 20.7383H274.529C274.52 20.6617 274.507 20.5086 274.507 20.3374V18.5718H274.083V19.878C274.083 20.2068 273.912 20.432 273.57 20.432C273.214 20.432 273.079 20.1708 273.079 19.8735V18.5718H272.655V19.9366C272.655 20.4275 272.962 20.8058 273.466 20.8058C273.718 20.8058 273.989 20.7022 274.106 20.477ZM276.432 18.5493C276.409 18.5448 276.35 18.5358 276.292 18.5358C276.071 18.5358 275.801 18.6169 275.643 18.9502V18.5718H275.229V20.7383H275.652V19.6528C275.652 19.1754 275.891 18.9862 276.247 18.9862C276.305 18.9862 276.369 18.9907 276.432 18.9997V18.5493ZM277.946 19.6303V19.261H276.725V19.6303H277.946ZM279.709 18.5718L279.146 20.2023L278.659 18.5718H278.195L278.907 20.7383H279.353L279.916 19.0898L280.493 20.7383H280.929L281.632 18.5718H281.186L280.709 20.2023L280.146 18.5718H279.709ZM282.291 19.4321C282.309 19.1529 282.525 18.8781 282.881 18.8781C283.263 18.8781 283.466 19.1213 283.475 19.4321H282.291ZM283.538 19.9951C283.457 20.2383 283.281 20.432 282.93 20.432C282.565 20.432 282.286 20.1618 282.277 19.7744H283.908C283.912 19.7474 283.917 19.6933 283.917 19.6393C283.917 18.9637 283.543 18.5043 282.876 18.5043C282.331 18.5043 281.84 18.9682 281.84 19.6483C281.84 20.3825 282.349 20.8058 282.93 20.8058C283.435 20.8058 283.781 20.5041 283.903 20.1212L283.538 19.9951ZM284.876 20.7383V20.423C285.011 20.6572 285.259 20.7968 285.578 20.7968C286.223 20.7968 286.587 20.2879 286.587 19.6438C286.587 19.0132 286.25 18.5088 285.592 18.5088C285.232 18.5088 284.979 18.6844 284.876 18.8781V17.4774H284.457V20.7383H284.876ZM286.155 19.6438C286.155 20.1122 285.903 20.4185 285.515 20.4185C285.142 20.4185 284.871 20.1122 284.871 19.6438C284.871 19.1754 285.142 18.8826 285.515 18.8826C285.907 18.8826 286.155 19.1754 286.155 19.6438ZM286.924 20.1753C286.96 20.423 287.212 20.8058 287.807 20.8058C288.343 20.8058 288.6 20.441 288.6 20.1347C288.6 19.815 288.392 19.5762 288.001 19.4907L287.649 19.4141C287.483 19.3781 287.402 19.2835 287.402 19.1529C287.402 19.0042 287.546 18.8646 287.762 18.8646C288.104 18.8646 288.194 19.1123 288.212 19.2249L288.586 19.0853C288.541 18.8916 288.356 18.5043 287.762 18.5043C287.339 18.5043 286.992 18.8196 286.992 19.1889C286.992 19.4952 287.194 19.7249 287.532 19.7969L287.902 19.878C288.082 19.9185 288.181 20.0221 288.181 20.1573C288.181 20.3104 288.05 20.4455 287.811 20.4455C287.505 20.4455 287.334 20.2654 287.307 20.0402L286.924 20.1753ZM289.582 20.7383V18.5718H289.163V20.7383H289.582ZM289.069 17.7521C289.069 17.9188 289.204 18.0539 289.37 18.0539C289.542 18.0539 289.677 17.9188 289.677 17.7521C289.677 17.581 289.542 17.4458 289.37 17.4458C289.204 17.4458 289.069 17.581 289.069 17.7521ZM290.87 17.8872H290.483V18.2385C290.483 18.4277 290.384 18.5718 290.149 18.5718H290.032V18.9547H290.447V20.1438C290.447 20.5356 290.681 20.7608 291.05 20.7608C291.194 20.7608 291.302 20.7338 291.338 20.7203V20.3599C291.302 20.369 291.226 20.378 291.172 20.378C290.951 20.378 290.87 20.2789 290.87 20.0807V18.9547H291.338V18.5718H290.87V17.8872ZM292.156 19.4321C292.174 19.1529 292.391 18.8781 292.746 18.8781C293.129 18.8781 293.332 19.1213 293.341 19.4321H292.156ZM293.404 19.9951C293.323 20.2383 293.147 20.432 292.796 20.432C292.431 20.432 292.152 20.1618 292.143 19.7744H293.773C293.778 19.7474 293.782 19.6933 293.782 19.6393C293.782 18.9637 293.408 18.5043 292.742 18.5043C292.197 18.5043 291.706 18.9682 291.706 19.6483C291.706 20.3825 292.215 20.8058 292.796 20.8058C293.3 20.8058 293.647 20.5041 293.769 20.1212L293.404 19.9951ZM294.212 20.45C294.212 20.6257 294.347 20.7608 294.522 20.7608C294.698 20.7608 294.838 20.6257 294.838 20.45C294.838 20.2744 294.698 20.1347 294.522 20.1347C294.347 20.1347 294.212 20.2744 294.212 20.45ZM296.359 18.8961C296.728 18.8961 296.885 19.1439 296.94 19.3555L297.322 19.1934C297.232 18.8646 296.935 18.5043 296.359 18.5043C295.741 18.5043 295.269 18.9772 295.269 19.6528C295.269 20.3104 295.732 20.8058 296.363 20.8058C296.926 20.8058 297.237 20.441 297.34 20.1302L296.967 19.9681C296.917 20.1392 296.768 20.414 296.363 20.414C296.012 20.414 295.701 20.1483 295.701 19.6528C295.701 19.1484 296.016 18.8961 296.359 18.8961ZM298.743 20.4275C298.383 20.4275 298.067 20.1573 298.067 19.6528C298.067 19.1529 298.383 18.8826 298.743 18.8826C299.103 18.8826 299.419 19.1529 299.419 19.6528C299.419 20.1573 299.103 20.4275 298.743 20.4275ZM298.743 18.5043C298.094 18.5043 297.635 18.9952 297.635 19.6528C297.635 20.3149 298.094 20.8058 298.743 20.8058C299.391 20.8058 299.851 20.3149 299.851 19.6528C299.851 18.9952 299.391 18.5043 298.743 18.5043ZM300.811 20.7383V19.4321C300.811 19.1078 301.014 18.8826 301.316 18.8826C301.64 18.8826 301.775 19.0988 301.775 19.3781V20.7383H302.199V19.4276C302.199 19.1168 302.401 18.8826 302.699 18.8826C303.018 18.8826 303.158 19.0943 303.158 19.3781V20.7383H303.577V19.333C303.577 18.7655 303.208 18.5088 302.829 18.5088C302.555 18.5088 302.275 18.6079 302.104 18.9187C301.987 18.6394 301.726 18.5088 301.456 18.5088C301.203 18.5088 300.933 18.6214 300.798 18.8601V18.5718H300.393V20.7383H300.811Z" fill="#8B8B8B"/>
</g>
</g>
<rect x="259.356" y="4.72754" width="45.4156" height="3.37802" rx="1.68901" fill="#CECECE"/>
<ellipse cx="309.838" cy="6.41655" rx="1.68901" ry="1.68901" fill="#CECECE"/>
<ellipse cx="250.16" cy="6.41679" rx="1.68901" ry="1.68901" fill="#CECECE"/>
<defs>
<filter id="filter0_d_357_582" x="5.25379" y="9.2317" width="549.491" height="24.0215" filterUnits="userSpaceOnUse" color-interpolation-filters="sRGB">
<feFlood flood-opacity="0" result="BackgroundImageFix"/>
<feColorMatrix in="SourceAlpha" type="matrix" values="0 0 0 0 0 0 0 0 0 0 0 0 0 0 0 0 0 0 127 0" result="hardAlpha"/>
<feOffset dy="1.50134"/>
<feGaussianBlur stdDeviation="2.25201"/>
<feColorMatrix type="matrix" values="0 0 0 0 0 0 0 0 0 0 0 0 0 0 0 0 0 0 0.14 0"/>
<feBlend mode="normal" in2="BackgroundImageFix" result="effect1_dropShadow_357_582"/>
<feBlend mode="normal" in="SourceGraphic" in2="effect1_dropShadow_357_582" result="shape"/>
</filter>
<linearGradient id="paint0_linear_357_582" x1="280" y1="0.599121" x2="280" y2="338.401" gradientUnits="userSpaceOnUse">
<stop stop-color="#F5F5F5"/>
<stop offset="1" stop-color="white"/>
</linearGradient>
</defs>
</svg>
