<svg width="400" height="400" viewBox="0 0 400 400" fill="none" xmlns="http://www.w3.org/2000/svg">
<path d="M233.46 19.4431L233.664 19.8966L234.118 19.6959L277.239 0.65935L337.178 136.43L299.91 152.954C296.172 146.712 290.463 141.832 283.623 139.127C275.428 135.886 266.281 136.033 258.195 139.536C250.108 143.039 243.745 149.611 240.504 157.806C237.729 164.824 237.438 172.539 239.611 179.688L201.92 196.399L182.528 152.692L182.312 152.207L181.841 152.45C181.576 152.587 181.308 152.72 181.036 152.849L181.251 153.301L181.036 152.849C180.945 152.893 180.853 152.936 180.761 152.978L180.761 152.978C167.503 159.097 151.795 153.309 145.676 140.051C139.558 126.792 145.346 111.084 158.604 104.966L158.395 104.512L158.604 104.966C159.209 104.687 159.82 104.432 160.434 104.202L160.931 104.016L160.716 103.531L141.634 60.5248L184.45 41.623L184.905 41.4221L184.706 40.9659C183.287 37.7095 182.5 34.114 182.5 30.3333C182.5 15.6202 194.427 3.69298 209.14 3.69298C219.973 3.69298 229.296 10.1584 233.46 19.4431ZM381.011 235.72L399.341 277.239L264.25 336.878L248.399 301.153C254.472 297.335 259.185 291.627 261.767 284.846C264.904 276.61 264.64 267.466 261.034 259.425C257.428 251.384 250.775 245.105 242.539 241.969C235.841 239.418 228.542 239.117 221.724 241.033L204.592 202.421L247.968 183.189L248.461 182.971L248.207 182.496C247.859 181.848 247.536 181.181 247.239 180.494C241.457 167.149 247.589 151.643 260.935 145.862C274.281 140.08 289.786 146.212 295.568 159.558C295.805 160.105 296.021 160.655 296.219 161.209L296.4 161.716L296.892 161.498L339.838 142.457L359.084 186.051L359.285 186.507L359.741 186.308C363.001 184.885 366.6 184.096 370.385 184.096C385.098 184.096 397.026 196.023 397.026 210.737C397.026 221.574 390.555 230.9 381.264 235.062L380.81 235.265L381.011 235.72ZM159.971 222.205L198.57 205.091L218 248.884L218.213 249.363L218.682 249.128C219.038 248.948 219.4 248.776 219.768 248.611C233.249 242.566 249.079 248.593 255.125 262.075C261.171 275.556 255.143 291.386 241.661 297.432C241.427 297.537 241.192 297.638 240.956 297.736C240.757 297.819 240.556 297.899 240.356 297.977L239.867 298.167L240.079 298.646L258.223 339.538L215.513 358.394L215.059 358.594L215.255 359.049C216.649 362.28 217.421 365.843 217.421 369.587C217.421 384.3 205.493 396.228 190.78 396.228C179.984 396.228 170.687 389.806 166.503 380.571L166.298 380.12L165.845 380.32L122.761 399.341L63.4527 264.998L99.9338 248.823C103.766 254.79 109.436 259.413 116.149 261.949C124.393 265.063 133.537 264.774 141.568 261.147C149.599 257.519 155.861 250.85 158.975 242.606C161.456 236.037 161.777 228.898 159.971 222.205ZM19.9614 166.483L0.659344 122.761L135.608 63.1853L152.246 100.686C145.947 104.569 141.088 110.469 138.504 117.484C135.457 125.753 135.82 134.894 139.512 142.895C143.205 150.897 149.925 157.104 158.194 160.151C164.898 162.621 172.176 162.85 178.954 160.88L195.898 199.069L152.009 218.529L151.535 218.739L151.762 219.205C151.844 219.372 151.924 219.54 152.003 219.71L152.439 219.508L152.003 219.71C152.036 219.783 152.069 219.856 152.102 219.929C158.142 233.301 152.198 249.036 138.826 255.076C125.454 261.115 109.718 255.171 103.679 241.8L103.223 242.005L103.679 241.8C103.518 241.443 103.366 241.086 103.222 240.726L103.029 240.245L102.555 240.455L60.7921 258.971L41.8886 216.152L41.6854 215.692L41.2265 215.897C37.9017 217.389 34.2151 218.219 30.3333 218.219C15.6202 218.219 3.69298 206.292 3.69298 191.579C3.69298 180.645 10.2797 171.249 19.7037 167.143L20.1643 166.943L19.9614 166.483Z" fill="#982623" stroke="#982623"/>
<path d="M145.981 84.4566C140.627 87.9874 135.603 92.0729 131 96.6758C113.055 114.621 102.974 138.96 102.974 164.338C102.974 192.647 117.862 226.272 135.893 256.616C137.051 256.27 138.199 255.843 139.331 255.332C152.955 249.179 159.011 233.147 152.858 219.523C152.78 219.351 152.7 219.18 152.619 219.01C152.584 218.935 152.548 218.86 152.511 218.786L196.857 199.124L196.558 198.448C188.262 197.937 180.409 194.415 174.498 188.504C168.089 182.095 164.488 173.402 164.488 164.338C164.488 163.24 164.541 162.147 164.646 161.063C162.621 160.728 160.619 160.202 158.666 159.482C150.522 156.481 143.903 150.367 140.266 142.486C136.629 134.605 136.271 125.602 139.272 117.457C141.869 110.41 146.796 104.505 153.181 100.686L145.981 84.4566Z" fill="#FFFAE3"/>
<path d="M224.27 186.97C226.771 184.141 228.788 180.914 230.237 177.417C231.954 173.27 232.838 168.826 232.838 164.338C232.838 155.275 229.237 146.582 222.828 140.173C216.419 133.764 207.727 130.164 198.663 130.164C189.599 130.164 180.907 133.764 174.498 140.173C170.25 144.421 167.236 149.672 165.686 155.37C157.143 153.982 149.421 148.51 145.522 140.06C139.288 126.551 145.185 110.547 158.694 104.312C159.31 104.028 159.932 103.769 160.558 103.534L150.778 81.4919C165.211 73.1505 181.705 68.6489 198.663 68.6489C224.042 68.6489 248.381 78.7305 266.326 96.6758C279.482 109.832 288.412 126.425 292.241 144.345C289.696 142.293 286.835 140.616 283.739 139.392C275.667 136.2 266.658 136.345 258.693 139.795C250.728 143.246 244.46 149.719 241.268 157.79C238.48 164.841 238.238 172.606 240.52 179.765L224.27 186.97Z" fill="#FFFAE3"/>
<path d="M293.865 154.688C286.761 144.262 273.041 140.003 261.036 145.203C247.437 151.094 241.188 166.894 247.079 180.493C247.382 181.193 247.712 181.873 248.065 182.532L204.232 201.967L221.743 241.434C228.577 239.416 235.927 239.672 242.661 242.236C250.409 245.187 256.735 250.962 260.382 258.376C278.882 227.578 294.353 193.195 294.353 164.338C294.353 161.101 294.189 157.88 293.865 154.688Z" fill="#FFFAE3"/>
<path d="M256.852 264.152C256.572 263.318 256.248 262.49 255.881 261.671C249.722 247.937 233.596 241.797 219.863 247.955C219.488 248.123 219.12 248.299 218.757 248.481L199.124 204.232L159.673 221.723C161.579 228.434 161.302 235.625 158.807 242.229C155.739 250.35 149.572 256.918 141.662 260.491C140.753 260.902 139.83 261.269 138.895 261.592C166.044 305.933 198.663 342.048 198.663 342.048C198.663 342.048 230.035 307.315 256.852 264.152Z" fill="#FFFAE3"/>
</svg>
