<svg
  width="274"
  height="167"
  viewBox="0 0 274 167"
  fill="none"
  xmlns="http://www.w3.org/2000/svg"
>
    <path
      d="M192.291 40.67C192.291 56.6922 167.246 103.943 152.886 129.718C151.912 131.467 150.488 132.923 148.762 133.938C147.037 134.952 145.071 135.487 143.069 135.487C141.068 135.487 139.102 134.952 137.376 133.938C135.65 132.923 134.227 131.467 133.253 129.718C118.893 103.943 93.8477 56.6922 93.8477 40.67C93.8477 18.2086 115.885 0 143.069 0C170.254 0 192.291 18.2086 192.291 40.67Z"
      fill="#982623"
    />
    <path
      d="M143.3 67.0131C158.105 67.0131 170.107 55.012 170.107 40.2079C170.107 25.4037 158.105 13.4026 143.3 13.4026C128.496 13.4026 116.494 25.4037 116.494 40.2079C116.494 55.012 128.496 67.0131 143.3 67.0131Z"
      fill="white"
    />
    <path
      d="M143.069 167C164.534 167 181.935 165.657 181.935 164C181.935 162.343 164.534 161 143.069 161C121.605 161 104.204 162.343 104.204 164C104.204 165.657 121.605 167 143.069 167Z"
      fill="#982623"
    />
    <path
      d="M235.161 108.852C162.42 81.585 73.7007 108.168 22.4779 162.546C22.1867 162.851 21.8955 163.161 21.6136 163.47H20.8325C21.1006 163.161 21.3779 162.851 21.6506 162.546C73.9364 104.032 161.477 80.7115 235.161 108.852Z"
      fill="#3F3D56"
    />
    <path
      d="M255.04 117.897C248.61 114.468 241.971 111.447 235.161 108.852C241.989 111.404 248.63 114.426 255.04 117.897Z"
      fill="#3F3D56"
    />
    <path
      d="M216.356 158.484C217.139 161.378 219.821 163.17 219.821 163.17C219.821 163.17 221.233 160.271 220.45 157.377C219.667 154.483 216.985 152.69 216.985 152.69C216.985 152.69 215.573 155.59 216.356 158.484Z"
      fill="#3F3D56"
    />
    <path
      d="M217.507 157.862C219.655 159.953 219.917 163.168 219.917 163.168C219.917 163.168 216.697 162.992 214.548 160.901C212.4 158.81 212.138 155.595 212.138 155.595C212.138 155.595 215.358 155.771 217.507 157.862Z"
      fill="#982623"
    />
    <path
      d="M123.231 136.731L121.319 133.544L139.165 118.247C152.359 111.897 168.263 113.729 185.056 118.247V122.709L168.485 140.555L149.363 144.379L123.231 136.731Z"
      fill="#3F3D56"
    />
    <path
      d="M192.956 127.224C196.125 123.699 196.565 120.347 192.956 117.252H186.948V120.396L185.056 118.247L169.759 133.544L167.21 136.093L164.023 148.841L169.759 162.862H199.078V134.181L192.956 127.224Z"
      fill="#CCCCCC"
    />
    <path
      d="M121.319 133.544H169.759V162.862H121.319C115.458 156.522 118.503 144.966 121.319 133.544Z"
      fill="#F2F2F2"
    />
    <path
      d="M163.067 142.785H152.869V151.708H163.067V142.785Z"
      fill="#3F3D56"
    />
    <path
      d="M148.726 142.467H139.803V162.862H148.726V142.467Z"
      fill="#CCCCCC"
    />
    <path
      d="M129.605 145.654V142.467H125.781V145.654H129.286H129.605Z"
      fill="#3F3D56"
    />
    <path
      d="M129.286 148.203H125.781V151.39H129.605V148.203H129.286Z"
      fill="#3F3D56"
    />
    <path
      d="M135.978 142.467H132.154V145.654H135.978V142.467Z"
      fill="#3F3D56"
    />
    <path d="M135.978 148.203H132.154V151.39H135.978V148.203Z" fill="#3F3D56" />
    <path
      d="M183.463 145.973V142.785H179.638V145.973H183.144H183.463Z"
      fill="#3F3D56"
    />
    <path
      d="M183.144 148.522H179.638V151.708H183.463V148.522H183.144Z"
      fill="#3F3D56"
    />
    <path
      d="M189.837 142.785H186.012V145.972H189.837V142.785Z"
      fill="#3F3D56"
    />
    <path
      d="M189.837 148.522H186.012V151.708H189.837V148.522Z"
      fill="#3F3D56"
    />
    <path
      d="M36.979 83.1933L33.7923 80.6435L51.6387 64.7097H96.8921V78.7316L67.5731 98.4898L36.979 83.1933Z"
      fill="#3F3D56"
    />
    <path
      d="M105.143 73.6477V65.028H99.1345V67.1391L96.892 64.7095L82.2323 80.6434L76.4962 84.4678L67.6017 149.449L81.0154 162.862H112.189C116.966 138.835 120.753 114.153 112.189 81.2807L105.143 73.6477Z"
      fill="#CCCCCC"
    />
    <path
      d="M33.792 80.6436H82.2324V162.862H33.792C28.4913 130.921 25.9024 101.3 33.792 80.6436Z"
      fill="#F2F2F2"
    />
    <path
      d="M61.5178 142.785H52.5945V162.862H61.5178V142.785Z"
      fill="#CCCCCC"
    />
    <path
      d="M43.0339 148.522V145.335H39.2099V148.522H42.7155H43.0339Z"
      fill="#3F3D56"
    />
    <path
      d="M42.7155 151.071H39.2099V154.258H43.0339V151.071H42.7155Z"
      fill="#3F3D56"
    />
    <path
      d="M49.4077 145.335H45.5834V148.522H49.4077V145.335Z"
      fill="#3F3D56"
    />
    <path
      d="M68.8478 151.071H65.3422V154.258H69.1662V151.071H68.8478Z"
      fill="#3F3D56"
    />
    <path d="M75.54 145.335H71.7158V148.522H75.54V145.335Z" fill="#3F3D56" />
    <path d="M75.54 151.071H71.7158V154.258H75.54V151.071Z" fill="#3F3D56" />
    <path
      d="M95.9358 84.7864V81.5998H92.1118V84.7864H95.6174H95.9358Z"
      fill="#3F3D56"
    />
    <path
      d="M95.6174 87.3361H92.1118V90.5227H95.9358V87.3361H95.6174Z"
      fill="#3F3D56"
    />
    <path d="M102.31 81.5996H98.4855V84.7864H102.31V81.5996Z" fill="#3F3D56" />
    <path d="M102.31 87.3358H98.4855V90.5225H102.31V87.3358Z" fill="#3F3D56" />
    <path
      d="M95.9358 102.633V99.4456H92.1118V102.633H95.6174H95.9358Z"
      fill="#3F3D56"
    />
    <path
      d="M95.6174 105.182H92.1118V108.368H95.9358V105.182H95.6174Z"
      fill="#3F3D56"
    />
    <path d="M102.31 99.4455H98.4855V102.632H102.31V99.4455Z" fill="#3F3D56" />
    <path d="M102.31 105.182H98.4855V108.368H102.31V105.182Z" fill="#3F3D56" />
    <path
      d="M95.9358 120.478V117.291H92.1118V120.478H95.6174H95.9358Z"
      fill="#3F3D56"
    />
    <path
      d="M95.6174 123.028H92.1118V126.214H95.9358V123.028H95.6174Z"
      fill="#3F3D56"
    />
    <path d="M102.31 117.291H98.4855V120.478H102.31V117.291Z" fill="#3F3D56" />
    <path d="M102.31 123.028H98.4855V126.214H102.31V123.028Z" fill="#3F3D56" />
    <path
      d="M95.9358 138.324V135.137H92.1118V138.324H95.6174H95.9358Z"
      fill="#3F3D56"
    />
    <path
      d="M95.6174 140.874H92.1118V144.06H95.9358V140.874H95.6174Z"
      fill="#3F3D56"
    />
    <path d="M102.31 135.137H98.4855V138.324H102.31V135.137Z" fill="#3F3D56" />
    <path d="M102.31 140.873H98.4855V144.06H102.31V140.873Z" fill="#3F3D56" />
    <path
      d="M39.2097 84.7864H76.1774V92.4346C64.3281 89.1645 51.9716 89.3991 39.2097 92.4346V84.7864Z"
      fill="#3F3D56"
    />
    <path
      d="M39.2097 100.083C50.7477 103.482 63.0703 103.482 76.1774 100.083V107.731H39.2097V100.083Z"
      fill="#3F3D56"
    />
    <path
      d="M39.2097 115.379H76.1774V123.028C63.5789 119.005 51.2433 118.815 39.2097 123.028V115.379Z"
      fill="#3F3D56"
    />
    <path
      d="M39.2097 130.676C51.266 135.322 63.5997 135.129 76.1774 130.676V138.324H39.2097V130.676Z"
      fill="#3F3D56"
    />
    <path
      d="M63.2428 47.1402H68.7361C74.1542 47.1402 79.3503 49.2925 83.1815 53.1235C87.0126 56.9545 89.165 62.1505 89.165 67.5684H63.2428V47.1402Z"
      fill="#3F3D56"
    />
    <path
      d="M151.056 98.4399H156.549C161.967 98.4399 167.164 100.592 170.995 104.423C174.826 108.254 176.978 113.45 176.978 118.868H151.056V98.4399Z"
      fill="#3F3D56"
    />
    <path d="M272 162.486H0V163.389H272V162.486Z" fill="#3F3D56" />
    <path
      d="M28.3389 126.033H27.4145V162.544H28.3389V126.033Z"
      fill="#3F3D56"
    />
    <path
      d="M36.8696 130.686C36.9284 143.453 27.946 153.844 27.946 153.844C27.946 153.844 16.4428 143.315 18.8093 130.769C21.1893 118.152 28.6069 107.665 27.7329 107.611C27.7329 107.611 36.8108 117.919 36.8696 130.686Z"
      fill="#982623"
    />
    <path
      d="M117.159 126.033H116.235V162.544H117.159V126.033Z"
      fill="#3F3D56"
    />
    <path
      d="M125.69 130.686C126.523 143.426 116.766 153.844 116.766 153.844C116.766 153.844 107.689 143.536 107.63 130.769C107.571 118.003 116.553 107.611 116.553 107.611C115.678 111.111 125.016 120.378 125.69 130.686Z"
      fill="#982623"
    />
    <path
      d="M57.1053 66.6845L97.2563 64.7203L114.099 78.7787L111.121 81.4671L84.4499 80.8668L57.1053 66.6845Z"
      fill="#3F3D56"
    />
    <path
      d="M144.918 119.833L185.069 117.869L201.912 131.927L198.935 134.615L172.263 134.015L144.918 119.833Z"
      fill="#3F3D56"
    />
    <path
      d="M249.25 79.9508V74.031C249.25 71.9271 250.107 69.9094 251.632 68.4218C253.157 66.9341 255.225 66.0984 257.382 66.0984C259.539 66.0984 261.607 66.9341 263.132 68.4218C264.658 69.9094 265.514 71.9271 265.514 74.031V79.9508C265.514 80.2333 265.399 80.5042 265.194 80.7039C264.989 80.9037 264.712 81.0161 264.422 81.0164H250.342C250.053 81.0161 249.775 80.9037 249.57 80.7039C249.366 80.5042 249.25 80.2333 249.25 79.9508Z"
      fill="#2F2E41"
    />
    <path
      d="M269.05 156.977L266.27 157.738L261.979 147.495L266.082 146.372L269.05 156.977Z"
      fill="#FFB8B8"
    />
    <path
      d="M264.058 157.645L269.451 156.145L270.391 159.557L261.602 162C261.479 161.552 261.444 161.084 261.501 160.623C261.558 160.161 261.704 159.716 261.932 159.311C262.16 158.907 262.465 158.552 262.83 158.266C263.195 157.98 263.612 157.769 264.058 157.645Z"
      fill="#2F2E41"
    />
    <path
      d="M240.057 159.158H237.182L235.814 147.792H240.057L240.057 159.158Z"
      fill="#FFB8B8"
    />
    <path
      d="M235.123 158.448H240.764V162H231.571C231.571 161.534 231.663 161.072 231.842 160.641C232.02 160.21 232.282 159.818 232.612 159.488C232.942 159.159 233.333 158.897 233.764 158.718C234.195 158.54 234.657 158.448 235.123 158.448Z"
      fill="#2F2E41"
    />
    <path
      d="M236.301 96.3641C236.512 96.6548 236.782 96.8947 237.092 97.067C237.403 97.2392 237.747 97.3397 238.1 97.3612C238.453 97.3827 238.806 97.3248 239.134 97.1915C239.463 97.0583 239.759 96.8529 240.001 96.5899L247.836 100.197L247.123 95.6859L239.793 92.9523C239.334 92.5645 238.752 92.3623 238.158 92.3841C237.563 92.406 236.997 92.6503 236.566 93.0708C236.136 93.4914 235.871 94.0589 235.823 94.6659C235.774 95.2729 235.944 95.8771 236.301 96.3641Z"
      fill="#FFB8B8"
    />
    <path
      d="M252.353 122.929C249.891 122.929 247.342 122.563 245.2 121.475C244.063 120.909 243.055 120.114 242.24 119.142C241.424 118.169 240.819 117.039 240.461 115.822C239.345 112.296 240.753 108.831 242.113 105.482C242.957 103.406 243.753 101.445 243.96 99.5122L244.032 98.826C244.354 95.7441 244.632 93.0823 246.171 92.084C246.969 91.5665 248.042 91.537 249.451 91.9936L262.686 96.2831L262.199 121.349L262.119 121.376C262.049 121.399 257.384 122.929 252.353 122.929Z"
      fill="#2F2E41"
    />
    <path
      d="M249.517 84.4783C249.517 84.4783 255.731 82.6017 260.564 83.3054C260.564 83.3054 257.802 98.7873 258.723 103.948C259.644 109.109 242.727 105.942 246.18 101.016L247.33 95.1514C247.33 95.1514 245.029 92.8057 247.1 89.9908L249.517 84.4783Z"
      fill="#982623"
    />
    <path
      d="M246.362 122.219L238.643 120.724L241.338 99.3116C241.519 98.7138 245.694 85.147 247.59 84.413C248.967 83.9124 250.374 83.5086 251.804 83.2043L252.079 83.1475L250.531 85.5446L244.369 100.79L246.362 122.219Z"
      fill="#2F2E41"
    />
    <path
      d="M242.399 156.317L232.279 154.623L237.958 131.335L246.409 99.4863L246.492 100.052C246.499 100.094 247.288 104.255 259.003 102.408L259.106 102.392L259.134 102.493L273.293 152.731L261.761 154.661L251.244 118.008L242.399 156.317Z"
      fill="#2F2E41"
    />
    <path
      d="M256.321 126.481L256.328 126.299C256.334 126.097 257.015 105.997 256.788 97.914C256.56 89.8031 259.071 82.7791 259.096 82.7091L259.117 82.6527L259.172 82.636C262.421 81.6654 265.239 84.5622 265.267 84.5916L265.307 84.6329L264.382 92.6157L268.343 121.644L256.321 126.481Z"
      fill="#2F2E41"
    />
    <path
      d="M255.614 81.0164C258.739 81.0164 261.271 78.313 261.271 74.9781C261.271 71.6433 258.739 68.9399 255.614 68.9399C252.49 68.9399 249.957 71.6433 249.957 74.9781C249.957 78.313 252.49 81.0164 255.614 81.0164Z"
      fill="#FFB8B8"
    />
    <path
      d="M247.836 74.5046C247.838 72.8409 248.485 71.2459 249.636 70.0695C250.787 68.8931 252.347 68.2314 253.974 68.2295H255.133C256.76 68.2314 258.321 68.8931 259.471 70.0695C260.622 71.2459 261.27 72.8409 261.271 74.5046V74.6229H258.824L257.989 72.2333L257.822 74.6229H256.557L256.136 73.4172L256.051 74.6229H247.836V74.5046Z"
      fill="#2F2E41"
    />
    <path
      d="M255.123 81.2835C254.999 81.123 254.926 80.9323 254.91 80.7333C254.895 80.5343 254.938 80.3352 255.035 80.1589C256.353 77.751 258.199 73.3017 255.749 70.5578L255.573 70.3607H262.686V80.6152L256.225 81.71C256.159 81.7211 256.093 81.7267 256.026 81.7268C255.85 81.7268 255.676 81.6866 255.519 81.6095C255.362 81.5325 255.226 81.4207 255.123 81.2835Z"
      fill="#2F2E41"
    />
    <path
      d="M227.874 39.5586C223.112 35.5501 217.284 33.0087 211.1 32.2438C204.916 31.4788 198.643 32.5233 193.043 35.2501C187.443 37.9768 182.759 42.2684 179.56 47.6024C176.361 52.9365 174.785 59.0831 175.024 65.2943C175.263 71.5055 177.306 77.5135 180.906 82.5872C184.506 87.6609 189.506 91.5815 195.299 93.8721C201.092 96.1626 207.427 96.7242 213.534 95.4886C219.641 94.253 225.256 91.2734 229.697 86.9124L269.125 120.099C269.725 120.605 270.502 120.853 271.285 120.787C272.068 120.722 272.793 120.349 273.3 119.751C273.807 119.152 274.055 118.377 273.99 117.596C273.924 116.816 273.55 116.093 272.95 115.587L272.946 115.583L233.517 82.396C238.097 75.8385 240.058 67.8111 239.014 59.887C237.97 51.9628 233.997 44.7131 227.874 39.5586ZM225.332 79.2003C222.261 82.8315 218.178 85.4727 213.602 86.7897C209.026 88.1067 204.16 88.0404 199.622 86.5992C195.083 85.158 191.075 82.4067 188.103 78.6931C185.132 74.9795 183.332 70.4705 182.93 65.7362C182.528 61.0019 183.542 56.255 185.844 52.0957C188.147 47.9365 191.634 44.5517 195.865 42.3694C200.096 40.1871 204.881 39.3053 209.614 39.8356C214.347 40.3658 218.817 42.2842 222.457 45.3483C224.874 47.3827 226.866 49.8721 228.319 52.6744C229.771 55.4767 230.656 58.5369 230.923 61.6803C231.19 64.8238 230.834 67.9889 229.875 70.995C228.915 74.0011 227.372 76.7892 225.332 79.2003Z"
      fill="#3F3D56"
    />
    <path
      opacity="0.3"
      d="M191.613 82.2385C187.052 78.3272 184.106 72.816 183.359 66.7992C182.612 60.7823 184.118 54.6998 187.579 49.7596C187.124 50.2248 186.685 50.712 186.261 51.2212C184.248 53.646 182.724 56.4501 181.777 59.4734C180.83 62.4967 180.478 65.6799 180.742 68.8413C181.006 72.0027 181.879 75.0804 183.313 77.8986C184.747 80.7169 186.713 83.2206 189.099 85.2666C191.485 87.3127 194.244 88.8611 197.218 89.8235C200.193 90.7859 203.325 91.1433 206.436 90.8755C209.546 90.6077 212.574 89.7198 215.347 88.2625C218.12 86.8053 220.584 84.8072 222.597 82.3823C223.02 81.8725 223.419 81.3503 223.793 80.8158C219.583 85.1143 213.938 87.6468 207.976 87.9103C202.015 88.1739 196.173 86.1493 191.613 82.2385Z"
      fill="black"
    />
    <path
      d="M257.425 106.525C257.758 106.604 258.105 106.611 258.44 106.546C258.776 106.48 259.093 106.343 259.369 106.145C259.645 105.947 259.874 105.692 260.038 105.398C260.202 105.104 260.298 104.778 260.32 104.444L268.343 102.267L265.082 99.4863L257.963 101.98C257.386 101.982 256.83 102.19 256.4 102.566C255.97 102.942 255.696 103.459 255.63 104.019C255.564 104.579 255.71 105.144 256.041 105.605C256.372 106.067 256.864 106.394 257.425 106.525Z"
      fill="#FFB8B8"
    />
    <path
      d="M261.067 105.169L260.564 100.469L267.461 96.7214L262.965 91.3609L263.698 85.3394L265.525 84.5683L265.582 84.6403C266.444 85.7313 274 95.3329 274 96.5198C274 97.7389 272.554 101.319 270.577 102.293C268.669 103.232 261.505 105.058 261.201 105.135L261.067 105.169Z"
      fill="#2F2E41"
    />
  </svg>
