<svg
  width="241"
  height="222"
  viewBox="0 0 241 222"
  fill="none"
  xmlns="http://www.w3.org/2000/svg"
>
    <g clip-path="url(#clip0_259_2201)">
      <path
        d="M170.812 203.594H60.8848C58.2742 203.591 55.7713 202.551 53.9256 200.703C52.0799 198.854 51.0422 196.348 51.0402 193.735V151.432C50.8126 151.692 50.5744 151.948 50.3291 152.197V193.735C50.3317 196.537 51.4445 199.224 53.4234 201.206C55.4023 203.187 58.0857 204.302 60.8848 204.306H171.121C171.014 204.071 170.911 203.833 170.812 203.594ZM51.0402 47.2324C51.0422 44.6188 52.0799 42.1127 53.9256 40.2643C55.7713 38.4158 58.2742 37.376 60.8848 37.373H97.5117C97.4442 37.1346 97.3801 36.8997 97.3197 36.6612H60.8848C58.0857 36.6647 55.4023 37.7797 53.4234 39.7615C51.4445 41.7433 50.3317 44.4301 50.3291 47.2324V112.084C50.5744 112.333 50.8091 112.589 51.0402 112.849V47.2324ZM198.643 55.547L175.675 37.3339C175.127 36.8987 174.448 36.6617 173.749 36.6612H153.309C153.252 36.8997 153.188 37.1381 153.121 37.373H173.749C174.287 37.3743 174.811 37.556 175.235 37.8891L198.202 56.1058C198.42 56.278 198.596 56.4975 198.717 56.7479C198.838 56.9983 198.9 57.2729 198.899 57.5509V163.559C199.137 163.566 199.375 163.584 199.61 163.601V57.5509C199.611 57.1653 199.525 56.7845 199.357 56.4373C199.19 56.0901 198.945 55.7857 198.643 55.547Z"
        fill="#3F3D56"
      />
      <path
        d="M198.339 56.4873H179.807C179.137 56.4873 178.474 56.3552 177.855 56.0985C177.236 55.8419 176.674 55.4657 176.2 54.9915C175.726 54.5173 175.351 53.9543 175.094 53.3347C174.838 52.7151 174.706 52.051 174.706 51.3804V37.6772C174.706 37.6172 174.723 37.5584 174.755 37.5076C174.786 37.4567 174.832 37.4159 174.886 37.3898C174.94 37.3637 175 37.3533 175.06 37.3599C175.119 37.3665 175.176 37.3897 175.223 37.427L198.537 55.9179C198.589 55.9591 198.627 56.0154 198.646 56.079C198.664 56.1426 198.662 56.2105 198.64 56.273C198.619 56.3356 198.578 56.3899 198.524 56.4283C198.47 56.4667 198.406 56.4873 198.339 56.4873Z"
        fill="#EEEEEE"
      />
      <path
        d="M198.339 56.8432H179.807C178.36 56.8416 176.973 56.2655 175.95 55.2413C174.927 54.2172 174.352 52.8286 174.35 51.3803V37.6772C174.35 37.5503 174.386 37.426 174.453 37.3185C174.521 37.211 174.617 37.1246 174.731 37.0694C174.845 37.0141 174.972 36.9922 175.098 37.006C175.224 37.0199 175.344 37.069 175.443 37.1478L198.758 55.639C198.868 55.726 198.948 55.8451 198.987 55.9797C199.026 56.1143 199.022 56.2577 198.976 56.3901C198.93 56.5225 198.844 56.6372 198.73 56.7184C198.616 56.7996 198.479 56.8432 198.339 56.8432ZM175.061 37.7531V51.3803C175.063 52.6399 175.563 53.8475 176.453 54.7382C177.343 55.6289 178.549 56.1299 179.807 56.1313H198.234L175.061 37.7531Z"
        fill="#D1D1D1"
      />
      <path
        d="M161.552 80.1069H107.033C106.357 80.1069 105.708 79.8378 105.23 79.359C104.751 78.8801 104.483 78.2306 104.483 77.5534C104.483 76.8762 104.751 76.2267 105.23 75.7478C105.708 75.269 106.357 74.9999 107.033 74.9999H161.552C162.228 74.9999 162.877 75.269 163.355 75.7478C163.834 76.2267 164.103 76.8762 164.103 77.5534C164.103 78.2306 163.834 78.8801 163.355 79.359C162.877 79.8378 162.228 80.1069 161.552 80.1069Z"
        fill="#D1D1D1"
      />
      <path
        d="M172.073 88.7248H107.033C106.357 88.7248 105.708 88.4558 105.23 87.9769C104.751 87.4981 104.483 86.8486 104.483 86.1714C104.483 85.4941 104.751 84.8446 105.23 84.3658C105.708 83.8869 106.357 83.6179 107.033 83.6179H172.073C172.75 83.6179 173.398 83.8869 173.877 84.3658C174.355 84.8446 174.624 85.4941 174.624 86.1714C174.624 86.8486 174.355 87.4981 173.877 87.9769C173.398 88.4558 172.75 88.7248 172.073 88.7248Z"
        fill="#D1D1D1"
      />
      <path
        d="M161.552 118.728H107.033C106.357 118.728 105.708 118.459 105.23 117.98C104.751 117.501 104.483 116.852 104.483 116.175C104.483 115.497 104.751 114.848 105.23 114.369C105.708 113.89 106.357 113.621 107.033 113.621H161.552C162.228 113.621 162.877 113.89 163.355 114.369C163.834 114.848 164.103 115.497 164.103 116.175C164.103 116.852 163.834 117.501 163.355 117.98C162.877 118.459 162.228 118.728 161.552 118.728Z"
        fill="#D1D1D1"
      />
      <path
        d="M172.073 127.346H107.033C106.357 127.346 105.708 127.077 105.23 126.598C104.751 126.119 104.483 125.47 104.483 124.793C104.483 124.115 104.751 123.466 105.23 122.987C105.708 122.508 106.357 122.239 107.033 122.239H172.073C172.75 122.239 173.398 122.508 173.877 122.987C174.355 123.466 174.624 124.115 174.624 124.793C174.624 125.47 174.355 126.119 173.877 126.598C173.398 127.077 172.75 127.346 172.073 127.346Z"
        fill="#D1D1D1"
      />
      <path
        d="M161.552 157.349H107.033C106.698 157.349 106.367 157.283 106.057 157.155C105.748 157.027 105.466 156.838 105.23 156.601C104.993 156.364 104.805 156.083 104.677 155.773C104.549 155.463 104.483 155.131 104.483 154.796C104.483 154.46 104.549 154.128 104.677 153.819C104.805 153.509 104.993 153.227 105.23 152.99C105.466 152.753 105.748 152.565 106.057 152.437C106.367 152.308 106.698 152.242 107.033 152.242H161.552C162.228 152.242 162.877 152.511 163.355 152.99C163.834 153.469 164.103 154.119 164.103 154.796C164.103 155.473 163.834 156.122 163.355 156.601C162.877 157.08 162.228 157.349 161.552 157.349Z"
        fill="#D1D1D1"
      />
      <path
        d="M172.073 165.967H107.033C106.698 165.967 106.367 165.901 106.057 165.773C105.748 165.644 105.466 165.456 105.23 165.219C104.993 164.982 104.805 164.701 104.677 164.391C104.549 164.081 104.483 163.749 104.483 163.414C104.483 163.078 104.549 162.746 104.677 162.437C104.805 162.127 104.993 161.845 105.23 161.608C105.466 161.371 105.748 161.183 106.057 161.055C106.367 160.926 106.698 160.86 107.033 160.86H172.073C172.408 160.86 172.74 160.926 173.049 161.055C173.359 161.183 173.64 161.371 173.877 161.608C174.113 161.845 174.301 162.127 174.43 162.437C174.558 162.746 174.624 163.078 174.624 163.414C174.624 163.749 174.558 164.081 174.43 164.391C174.301 164.701 174.113 164.982 173.877 165.219C173.64 165.456 173.359 165.644 173.049 165.773C172.74 165.901 172.408 165.967 172.073 165.967Z"
        fill="#D1D1D1"
      />
      <path
        d="M84.3302 90.8875C89.309 90.8875 93.3451 86.8468 93.3451 81.8624C93.3451 76.878 89.309 72.8373 84.3302 72.8373C79.3514 72.8373 75.3153 76.878 75.3153 81.8624C75.3153 86.8468 79.3514 90.8875 84.3302 90.8875Z"
        fill="#982623"
      />
      <path
        d="M83.4368 85.3052C83.234 85.3055 83.0366 85.2398 82.8744 85.118L82.8643 85.1105L80.7457 83.488C80.6473 83.4127 80.5648 83.3188 80.5027 83.2116C80.4407 83.1044 80.4004 82.986 80.3841 82.8632C80.3678 82.7404 80.3758 82.6155 80.4077 82.4958C80.4397 82.3761 80.4949 82.2639 80.5702 82.1656C80.6455 82.0672 80.7394 81.9847 80.8466 81.9228C80.9537 81.8608 81.0721 81.8206 81.1948 81.8045C81.3175 81.7884 81.4422 81.7966 81.5617 81.8288C81.6812 81.8609 81.7932 81.9164 81.8913 81.9919L83.2636 83.0454L86.5064 78.8101C86.5816 78.7119 86.6753 78.6295 86.7823 78.5676C86.8893 78.5057 87.0075 78.4655 87.13 78.4493C87.2525 78.4331 87.377 78.4412 87.4964 78.4731C87.6158 78.5051 87.7278 78.5603 87.8258 78.6356L87.806 78.6638L87.8267 78.6358C88.0245 78.7881 88.154 79.0127 88.1866 79.2604C88.2193 79.5081 88.1524 79.7586 88.0007 79.957L84.1865 84.9365C84.0983 85.0512 83.9849 85.1441 83.855 85.2078C83.7251 85.2715 83.5823 85.3045 83.4377 85.3041L83.4368 85.3052Z"
        fill="white"
      />
      <path
        d="M84.3302 129.509C89.309 129.509 93.3451 125.468 93.3451 120.484C93.3451 115.499 89.309 111.458 84.3302 111.458C79.3514 111.458 75.3153 115.499 75.3153 120.484C75.3153 125.468 79.3514 129.509 84.3302 129.509Z"
        fill="#EEEEEE"
      />
      <path
        d="M83.4369 123.926C83.234 123.927 83.0366 123.861 82.8744 123.739L82.8643 123.732L80.7457 122.109C80.5475 121.957 80.4178 121.732 80.3851 121.485C80.3524 121.237 80.4194 120.986 80.5713 120.788C80.7232 120.589 80.9477 120.459 81.1952 120.427C81.4428 120.394 81.6932 120.461 81.8913 120.613L83.2636 121.667L86.5064 117.431C86.5816 117.333 86.6754 117.251 86.7824 117.189C86.8894 117.127 87.0075 117.087 87.13 117.07C87.2525 117.054 87.3771 117.062 87.4964 117.094C87.6158 117.126 87.7278 117.182 87.8259 117.257L87.806 117.285L87.8267 117.257C88.0245 117.409 88.154 117.634 88.1866 117.882C88.2193 118.129 88.1524 118.38 88.0008 118.578L84.1866 123.558C84.0983 123.672 83.9849 123.765 83.855 123.829C83.7251 123.893 83.5823 123.926 83.4377 123.925L83.4369 123.926Z"
        fill="white"
      />
      <path
        d="M84.3302 168.13C89.309 168.13 93.3451 164.089 93.3451 159.105C93.3451 154.12 89.309 150.08 84.3302 150.08C79.3514 150.08 75.3153 154.12 75.3153 159.105C75.3153 164.089 79.3514 168.13 84.3302 168.13Z"
        fill="#EEEEEE"
      />
      <path
        d="M83.4368 162.548C83.234 162.548 83.0366 162.482 82.8744 162.36L82.8643 162.353L80.7457 160.73C80.6473 160.655 80.5648 160.561 80.5027 160.454C80.4407 160.347 80.4004 160.228 80.3841 160.106C80.3678 159.983 80.3758 159.858 80.4077 159.738C80.4397 159.619 80.4949 159.506 80.5702 159.408C80.6455 159.31 80.7394 159.227 80.8466 159.165C80.9537 159.103 81.0721 159.063 81.1948 159.047C81.3175 159.031 81.4422 159.039 81.5617 159.071C81.6812 159.103 81.7932 159.159 81.8913 159.234L83.2636 160.288L86.5064 156.052C86.5816 155.954 86.6753 155.872 86.7823 155.81C86.8893 155.748 87.0075 155.708 87.13 155.692C87.2525 155.675 87.377 155.684 87.4964 155.716C87.6158 155.748 87.7278 155.803 87.8258 155.878L87.806 155.906L87.8267 155.878C88.0245 156.03 88.154 156.255 88.1866 156.503C88.2193 156.75 88.1524 157.001 88.0007 157.199L84.1865 162.179C84.0983 162.294 83.9849 162.386 83.855 162.45C83.7251 162.514 83.5823 162.547 83.4377 162.546L83.4368 162.548Z"
        fill="white"
      />
      <path
        d="M211.078 218.659C210.569 218.925 210.052 219.177 209.526 219.414C209.047 219.631 208.56 219.835 208.065 220.025C207.885 220.094 207.701 220.163 207.517 220.232C206.064 220.76 204.572 221.172 203.054 221.464C202.303 221.612 201.541 221.728 200.77 221.813C200.134 221.885 199.49 221.936 198.841 221.967C198.378 221.99 197.915 222 197.449 222C195.604 222.001 193.762 221.828 191.949 221.484C191.476 221.399 191.014 221.297 190.551 221.185C188.313 220.648 186.146 219.848 184.096 218.8C183.912 218.708 183.728 218.609 183.545 218.514C183.272 218.37 183.006 218.219 182.741 218.061C182.869 217.883 183.006 217.709 183.147 217.538C184.683 215.633 186.602 214.073 188.781 212.961C190.959 211.848 193.346 211.207 195.788 211.08C198.231 210.953 200.672 211.342 202.953 212.223C205.235 213.104 207.306 214.456 209.03 216.191C209.629 216.793 210.184 217.436 210.691 218.117C210.825 218.294 210.953 218.475 211.078 218.659Z"
        fill="#982623"
      />
      <path
        d="M198.104 204.227C206.062 204.227 212.514 197.768 212.514 189.801C212.514 181.833 206.062 175.375 198.104 175.375C190.146 175.375 183.694 181.833 183.694 189.801C183.694 197.768 190.146 204.227 198.104 204.227Z"
        fill="#2F2E41"
      />
      <path
        d="M201.937 204.247C207.134 201.403 209.044 194.879 206.203 189.676C203.362 184.473 196.845 182.561 191.648 185.405C186.451 188.249 184.541 194.773 187.382 199.976C190.223 205.179 196.739 207.092 201.937 204.247Z"
        fill="#FFFAE3"
      />
      <path
        d="M208.062 188.073C205.611 189.764 202.702 190.664 199.726 190.652C200.787 191.389 201.996 191.887 203.268 192.111C199.311 192.961 195.221 192.984 191.254 192.178C190.372 192.037 189.522 191.744 188.739 191.314C188.349 191.096 188.009 190.798 187.742 190.44C187.475 190.082 187.285 189.671 187.187 189.235C186.923 187.728 188.096 186.358 189.316 185.435C191.183 184.043 193.335 183.084 195.618 182.628C197.901 182.171 200.256 182.228 202.514 182.795C203.988 183.176 205.465 183.821 206.423 185.006C207.38 186.191 207.664 188.019 206.751 189.239L208.062 188.073Z"
        fill="#2F2E41"
      />
      <path
        d="M199.61 162.939C199.375 162.922 199.137 162.907 198.899 162.897C198.419 162.872 197.935 162.861 197.448 162.861C192.605 162.861 187.836 164.054 183.562 166.334C179.287 168.613 175.638 171.911 172.937 175.935C170.235 179.959 168.563 184.587 168.069 189.41C167.574 194.233 168.272 199.104 170.101 203.594C170.197 203.833 170.296 204.071 170.403 204.306C172.846 209.847 176.919 214.511 182.079 217.675L182.267 217.785C182.427 217.881 182.583 217.974 182.74 218.059C183.007 218.219 183.273 218.369 183.543 218.515C183.728 218.611 183.913 218.707 184.094 218.8C186.145 219.848 188.312 220.648 190.551 221.184C191.013 221.298 191.475 221.398 191.948 221.483C193.761 221.827 195.603 222 197.448 221.999C197.914 221.999 198.376 221.989 198.842 221.967C199.489 221.939 200.133 221.886 200.769 221.814C201.54 221.729 202.302 221.613 203.055 221.466C204.572 221.172 206.064 220.76 207.517 220.234C207.702 220.163 207.887 220.095 208.064 220.024C208.562 219.835 209.046 219.632 209.526 219.415C210.052 219.177 210.57 218.924 211.079 218.657C216.187 215.978 220.41 211.873 223.235 206.84C223.248 206.813 223.262 206.787 223.278 206.762C225.683 202.422 226.958 197.545 226.985 192.581C227.012 187.618 225.791 182.727 223.432 178.361C221.074 173.995 217.656 170.293 213.492 167.598C209.329 164.903 204.555 163.301 199.61 162.939ZM225.82 197.856C225.249 200.842 224.208 203.718 222.737 206.378C222.712 206.424 222.687 206.47 222.663 206.513C219.895 211.472 215.732 215.507 210.692 218.116C210.187 218.38 209.676 218.626 209.159 218.857C208.729 219.049 208.288 219.234 207.844 219.405C207.659 219.476 207.467 219.551 207.279 219.615C206.023 220.074 204.736 220.442 203.428 220.718C202.458 220.926 201.478 221.08 200.492 221.181C199.884 221.248 199.269 221.295 198.646 221.316C198.248 221.334 197.85 221.345 197.448 221.345C195.662 221.345 193.881 221.178 192.126 220.846C191.058 220.65 190.003 220.391 188.965 220.07C187.385 219.583 185.849 218.96 184.375 218.209C184.205 218.12 184.034 218.031 183.867 217.938C183.625 217.81 183.383 217.678 183.149 217.54C182.971 217.44 182.793 217.333 182.619 217.23C182.516 217.169 182.416 217.109 182.313 217.045C177.402 214.005 173.505 209.571 171.121 204.306C171.014 204.071 170.911 203.833 170.812 203.594C168.974 199.2 168.25 194.42 168.703 189.678C169.156 184.936 170.772 180.38 173.408 176.414C176.044 172.449 179.618 169.196 183.812 166.947C188.006 164.697 192.69 163.52 197.448 163.52C197.935 163.52 198.419 163.53 198.899 163.559C199.137 163.566 199.375 163.584 199.61 163.601C203.667 163.909 207.613 165.071 211.19 167.011C214.768 168.951 217.896 171.625 220.37 174.858C222.844 178.092 224.608 181.812 225.548 185.775C226.487 189.738 226.579 193.855 225.82 197.856Z"
        fill="#3F3D56"
      />
      <path
        d="M190.807 175.574C190.652 173.942 188.655 172.937 187.093 173.43C185.531 173.923 184.505 175.497 184.195 177.107C184.046 177.785 184.032 178.486 184.154 179.169C184.276 179.853 184.532 180.505 184.906 181.09C185.695 182.227 187.146 182.937 188.499 182.648C190.044 182.319 191.114 180.809 191.421 179.258C191.727 177.706 191.423 176.107 191.119 174.555L190.807 175.574Z"
        fill="#2F2E41"
      />
      <path
        d="M212.788 177.905C212.633 176.273 210.636 175.268 209.074 175.761C207.512 176.254 206.487 177.829 206.177 179.439C206.028 180.117 206.014 180.818 206.136 181.501C206.258 182.185 206.513 182.837 206.888 183.422C207.677 184.559 209.128 185.269 210.481 184.98C212.026 184.651 213.096 183.14 213.402 181.589C213.708 180.038 213.404 178.439 213.101 176.887L212.788 177.905Z"
        fill="#2F2E41"
      />
      <path
        d="M141.068 54.1894C136.496 57.1203 131.199 58.7185 125.771 58.805C120.343 58.8915 114.998 57.4627 110.335 54.6789C111.155 53.1503 112.194 51.7502 113.42 50.5229C115.31 48.6211 117.611 47.1785 120.146 46.3059C122.68 45.4333 125.381 45.154 128.04 45.4893C130.699 45.8247 133.246 46.7658 135.485 48.2404C137.724 49.715 139.596 51.6838 140.956 53.9956C140.992 54.058 141.032 54.1237 141.068 54.1894Z"
        fill="#982623"
      />
      <path
        d="M124.418 38.4785C132.429 38.4785 138.924 31.9768 138.924 23.9565C138.924 15.9362 132.429 9.43452 124.418 9.43452C116.407 9.43452 109.913 15.9362 109.913 23.9565C109.913 31.9768 116.407 38.4785 124.418 38.4785Z"
        fill="#2F2E41"
      />
      <path
        d="M133.79 34.1995C136.65 28.9617 134.727 22.3946 129.495 19.5314C124.263 16.6681 117.703 18.5931 114.843 23.8308C111.983 29.0686 113.906 35.6358 119.138 38.499C124.37 41.3622 130.93 39.4373 133.79 34.1995Z"
        fill="#FFFAE3"
      />
      <path
        d="M114.394 22.2168C116.862 23.9191 119.79 24.825 122.786 24.8131C121.717 25.555 120.5 26.0561 119.22 26.282C123.203 27.1375 127.321 27.1607 131.314 26.35C132.201 26.2075 133.058 25.913 133.845 25.4795C134.238 25.26 134.58 24.9603 134.849 24.5998C135.119 24.2393 135.309 23.8261 135.408 23.3871C135.674 21.8696 134.492 20.4908 133.265 19.5616C131.386 18.1607 129.219 17.1955 126.921 16.7358C124.623 16.2761 122.252 16.3335 119.979 16.9038C118.495 17.2879 117.009 17.9367 116.045 19.1299C115.081 20.3231 114.795 22.1626 115.714 23.3913L114.394 22.2168Z"
        fill="#2F2E41"
      />
      <path
        d="M125.307 0C117.477 0.00871639 109.969 3.12653 104.432 8.6695C98.8945 14.2125 95.7793 21.728 95.7697 29.5674C95.7709 31.9589 96.0646 34.3412 96.6443 36.6612C96.7047 36.8997 96.7651 37.1381 96.8292 37.373C98.5329 43.6266 102.244 49.1454 107.39 53.0787C112.537 57.012 118.833 59.1413 125.307 59.1384C131.783 59.1382 138.08 57.0081 143.228 53.0755C148.377 49.143 152.092 43.626 153.803 37.373C153.867 37.1346 153.928 36.8997 153.984 36.6612C155.056 32.3055 155.123 27.7631 154.183 23.3773C153.242 18.9915 151.318 14.8772 148.555 11.3455C145.793 7.81386 142.264 4.95725 138.237 2.9917C134.209 1.02616 129.788 0.00313811 125.307 0ZM153.309 36.6612C153.252 36.8997 153.188 37.1381 153.121 37.373C151.921 41.65 149.754 45.5929 146.786 48.8961C143.819 52.1992 140.132 54.7737 136.011 56.4201C131.889 58.0664 127.444 58.7404 123.021 58.3896C118.597 58.0388 114.314 56.6727 110.503 54.3973C104.169 50.5815 99.5239 44.4944 97.5118 37.373C97.4442 37.1346 97.3802 36.8997 97.3198 36.6612C96.7273 34.3432 96.4275 31.96 96.4275 29.5674C96.4321 25.4718 97.3058 21.424 98.9908 17.6919C100.676 13.9599 103.134 10.6289 106.202 7.91947C109.269 5.21008 112.877 3.18416 116.786 1.97591C120.695 0.76766 124.816 0.404653 128.875 0.910929C132.935 1.4172 136.841 2.78121 140.334 4.9126C143.827 7.04399 146.828 9.89412 149.139 13.2742C151.449 16.6543 153.015 20.4872 153.734 24.519C154.453 28.5509 154.308 32.6896 153.309 36.6612Z"
        fill="#3F3D56"
      />
      <path
        d="M45.2984 156.746C40.7268 159.677 35.4301 161.276 30.002 161.362C24.5739 161.449 19.229 160.021 14.5662 157.237C14.6159 157.141 14.6692 157.045 14.7261 156.953C16.2218 154.253 18.4015 151.997 21.0456 150.409C23.6898 148.822 26.7051 147.96 29.7879 147.911C32.8706 147.861 35.912 148.626 38.6056 150.128C41.2992 151.629 43.5499 153.815 45.1312 156.465C45.1526 156.493 45.1703 156.525 45.1881 156.554C45.2237 156.614 45.2628 156.682 45.2984 156.746Z"
        fill="#982623"
      />
      <path
        d="M43.1544 126.513C43.1544 129.385 42.3037 132.193 40.7097 134.581C39.1158 136.969 36.8504 138.831 34.1998 139.93C31.5492 141.029 28.6326 141.316 25.8188 140.756C23.005 140.196 20.4204 138.813 18.3917 136.782C16.3631 134.751 14.9816 132.163 14.4219 129.346C13.8622 126.529 14.1494 123.609 15.2473 120.956C16.3452 118.302 18.2045 116.034 20.5899 114.438C22.9753 112.843 25.7798 111.991 28.6488 111.991C30.5562 111.982 32.4466 112.351 34.2106 113.078C35.9747 113.804 37.5774 114.874 38.9262 116.224C40.275 117.574 41.3431 119.179 42.0688 120.945C42.7946 122.711 43.1635 124.603 43.1544 126.513Z"
        fill="#2F2E41"
      />
      <path
        d="M40.015 135.536C39.849 135.954 39.6579 136.362 39.4427 136.757C38.0691 139.272 35.7539 141.138 33.0063 141.944C30.2587 142.751 27.3037 142.431 24.7912 141.057C23.5461 140.376 22.4472 139.457 21.5571 138.352C20.667 137.246 20.0033 135.976 19.6038 134.613C19.2043 133.25 19.0769 131.823 19.229 130.411C19.381 128.999 19.8094 127.631 20.4897 126.385C21.17 125.139 22.089 124.039 23.1939 123.149C24.2989 122.259 25.5683 121.595 26.9296 121.196C28.2908 120.797 29.7173 120.671 31.1274 120.824C32.5375 120.977 33.9037 121.407 35.1478 122.089C37.4558 123.352 39.2238 125.416 40.1199 127.892C41.0161 130.367 40.9788 133.086 40.015 135.536Z"
        fill="#FFFAE3"
      />
      <path
        d="M51.0402 111.884C50.8126 111.635 50.5744 111.389 50.3291 111.151C46.3786 107.231 41.4023 104.509 35.9736 103.297C30.5449 102.086 24.8848 102.434 19.6453 104.303C14.4058 106.171 9.80027 109.483 6.35921 113.858C2.91815 118.233 0.781635 123.492 0.195837 129.029C-0.389962 134.566 0.598785 140.156 3.04816 145.156C5.49754 150.155 9.30789 154.36 14.0402 157.285C18.7724 160.211 24.2341 161.739 29.7958 161.693C35.3576 161.646 40.7931 160.028 45.4761 157.024C47.2251 155.9 48.8516 154.596 50.3291 153.133C50.5709 152.895 50.8091 152.653 51.0402 152.404C56.1988 146.922 59.0716 139.675 59.0716 132.144C59.0716 124.613 56.1988 117.366 51.0402 111.884ZM50.3291 152.197C48.7677 153.817 47.0234 155.249 45.1312 156.465C45.1277 156.468 45.1241 156.468 45.1206 156.472C40.6 159.369 35.3627 160.95 29.9956 161.035C24.6285 161.12 19.3437 159.708 14.7332 156.956C14.7298 156.956 14.7298 156.953 14.7261 156.953C11.1901 154.842 8.14584 151.998 5.79753 148.613C3.44921 145.227 1.85113 141.378 1.11047 137.324C0.369806 133.269 0.503685 129.103 1.50313 125.105C2.50257 121.107 4.34447 117.368 6.90529 114.141C9.46611 110.914 12.6866 108.272 16.3509 106.393C20.0151 104.514 24.0384 103.441 28.1508 103.246C32.2632 103.051 36.3697 103.739 40.1948 105.263C44.0199 106.787 47.4753 109.113 50.3291 112.084C50.5744 112.333 50.8091 112.589 51.0402 112.849C55.7881 118.15 58.4138 125.02 58.4138 132.14C58.4138 139.261 55.7881 146.13 51.0402 151.432C50.8126 151.692 50.5744 151.948 50.3291 152.197Z"
        fill="#3F3D56"
      />
      <path
        d="M40.4053 114.453C39.6907 113.239 38.6548 112.246 37.412 111.584C36.1691 110.922 34.7677 110.617 33.3625 110.702C31.8876 110.812 30.4842 111.356 29.1063 111.895L22.1007 114.63C20.2879 115.338 18.3025 116.205 17.5159 117.987C16.7858 119.641 17.3305 121.551 17.8819 123.272L20.503 131.456C20.8621 129.618 21.2269 127.761 21.9883 126.05C22.7496 124.339 23.9538 122.761 25.6186 121.906C27.4383 120.972 29.5831 120.991 31.6259 121.09C34.5191 121.229 37.6648 121.597 39.7204 123.64C40.8116 124.801 41.5514 126.247 41.8538 127.812C42.1514 129.368 42.3012 130.949 42.3012 132.533C43.4876 130.492 44.487 128.347 45.2871 126.125C45.9453 124.47 46.3204 122.716 46.3966 120.937C46.4122 119.16 45.9097 117.327 44.7262 116.003C43.5426 114.678 41.6141 113.963 39.9182 114.488"
        fill="#2F2E41"
      />
      <path
        d="M18.3144 75.402L17.6034 75.3937C17.6119 74.6818 17.6323 73.9593 17.6643 73.2466L18.3746 73.2786C18.3431 73.9835 18.3228 74.6979 18.3144 75.402Z"
        fill="#EEEEEE"
      />
      <path
        d="M18.687 69.2136L17.9801 69.1365C18.1285 67.7758 18.323 66.4035 18.558 65.0578L19.2584 65.1805C19.026 66.5111 18.8337 67.8681 18.687 69.2136ZM20.0885 61.1924L19.3974 61.0249C19.7192 59.6955 20.0888 58.3597 20.4958 57.0544L21.1746 57.2664C20.7721 58.5572 20.4067 59.8782 20.0885 61.1924ZM22.5141 53.4147L21.8505 53.1589C22.3416 51.8819 22.8812 50.6039 23.4541 49.3606L24.0998 49.6588C23.5332 50.8883 22.9997 52.1519 22.5141 53.4147ZM25.9244 46.0138L25.2994 45.6746C25.9504 44.4726 26.6496 43.2753 27.3777 42.1159L27.9797 42.4948C27.2596 43.6413 26.5682 44.8252 25.9244 46.0138ZM30.2562 39.1157L29.6798 38.6989C30.4797 37.5899 31.3262 36.4924 32.1956 35.4369L32.7441 35.8899C31.8844 36.9337 31.0474 38.0188 30.2562 39.1157ZM35.4328 32.8303L34.9143 32.3434C35.8484 31.3465 36.8276 30.3664 37.8245 29.4302L38.311 29.9495C37.3251 30.8753 36.3567 31.8446 35.4328 32.8303ZM41.3666 27.2588L40.9143 26.7096C41.9683 25.8396 43.0641 24.9927 44.1711 24.1925L44.5874 24.7695C43.4926 25.561 42.409 26.3985 41.3666 27.2588ZM47.9603 22.4925L47.5818 21.8897C48.7384 21.1619 49.933 20.4627 51.1326 19.8115L51.4716 20.4372C50.2853 21.0812 49.1039 21.7726 47.9603 22.4925ZM55.1069 18.6132L54.809 17.9666C56.0481 17.3943 57.3221 16.855 58.5957 16.3637L58.8513 17.028C57.592 17.5137 56.3321 18.0471 55.1069 18.6132ZM62.6891 15.6889L62.4769 15.0093C63.7802 14.6014 65.1144 14.2309 66.4425 13.9082L66.6102 14.5999C65.297 14.9191 63.9778 15.2855 62.6891 15.6889ZM70.5933 13.7672L70.4706 13.0661C71.8145 12.8303 73.1851 12.6351 74.5443 12.486L74.6218 13.1937C73.2776 13.3411 71.9222 13.5342 70.5933 13.7672Z"
        fill="#EEEEEE"
      />
      <path
        d="M78.7064 12.8784L78.6745 12.1673C79.3867 12.1353 80.1082 12.1148 80.819 12.1063L80.8275 12.8181C80.1245 12.8265 79.4108 12.8468 78.7064 12.8784Z"
        fill="#EEEEEE"
      />
      <path
        d="M20.9405 73.1138L20.4324 72.6151L17.9814 75.1248L15.6598 72.4941L15.1268 72.9664L17.9551 76.1698L20.9405 73.1138Z"
        fill="#EEEEEE"
      />
      <path
        d="M78.542 15.4472L78.0439 14.9385L80.5507 12.4847L77.923 10.1605L78.3948 9.62694L81.5946 12.4584L78.542 15.4472Z"
        fill="#EEEEEE"
      />
      <path
        d="M184.921 19.9169C184.295 19.5872 183.665 19.2632 183.03 18.9448L183.348 18.3083C183.987 18.6286 184.622 18.9548 185.252 19.2869L184.921 19.9169Z"
        fill="#EEEEEE"
      />
      <path
        d="M233.24 151.302L232.582 151.032C233.117 149.725 233.631 148.392 234.111 147.069L234.779 147.312C234.296 148.644 233.778 149.986 233.24 151.302ZM236.155 143.263L235.477 143.047C235.903 141.703 236.307 140.332 236.678 138.973L237.364 139.16C236.991 140.529 236.584 141.909 236.155 143.263ZM238.403 135.011L237.71 134.852C238.025 133.476 238.315 132.077 238.572 130.692L239.271 130.822C239.012 132.216 238.72 133.626 238.403 135.011ZM239.966 126.601L239.262 126.5C239.462 125.104 239.636 123.685 239.779 122.283L240.486 122.355C240.342 123.767 240.167 125.196 239.966 126.601ZM240.831 118.09L240.121 118.048C240.206 116.641 240.262 115.212 240.289 113.802L241 113.815C240.973 115.236 240.916 116.674 240.831 118.09ZM240.993 109.537L240.283 109.553C240.269 108.934 240.25 108.315 240.225 107.697C240.193 106.904 240.152 106.1 240.102 105.307L240.811 105.262C240.862 106.061 240.904 106.87 240.935 107.668C240.96 108.291 240.98 108.913 240.993 109.537ZM239.748 101.074C239.601 99.672 239.424 98.2539 239.221 96.8596L239.924 96.7566C240.129 98.1606 240.307 99.5884 240.455 101.001L239.748 101.074ZM238.522 92.669C238.263 91.2842 237.97 89.885 237.654 88.5102L238.347 88.3502C238.665 89.7345 238.96 91.1432 239.221 92.5376L238.522 92.669ZM236.617 84.3899C236.245 83.0288 235.84 81.6579 235.413 80.3148L236.091 80.0991C236.52 81.4513 236.928 82.8316 237.303 84.202L236.617 84.3899ZM234.045 76.2921C233.563 74.9663 233.048 73.6326 232.514 72.3277L233.172 72.0575C233.71 73.3714 234.228 74.7143 234.713 76.0489L234.045 76.2921ZM230.823 68.4287C230.235 67.1462 229.613 65.8586 228.974 64.6017L229.608 64.2788C230.251 65.5443 230.878 66.8406 231.469 68.1319L230.823 68.4287ZM226.971 60.8529C226.282 59.623 225.557 58.3904 224.817 57.1893L225.422 56.8157C226.167 58.025 226.897 59.2662 227.592 60.5046L226.971 60.8529ZM222.515 53.6166C221.726 52.4464 220.903 51.277 220.068 50.141L220.64 49.719C221.481 50.8629 222.31 52.0404 223.104 53.2186L222.515 53.6166ZM217.48 46.7684C216.597 45.6663 215.68 44.5685 214.755 43.5054L215.291 43.0376C216.223 44.1081 217.146 45.2134 218.035 46.3232L217.48 46.7684ZM211.898 40.3571C210.927 39.3312 209.923 38.3125 208.913 37.3291L209.409 36.8187C210.426 37.8088 211.437 38.8347 212.414 39.8675L211.898 40.3571ZM205.805 34.4264C204.754 33.4845 203.669 32.5518 202.58 31.6545L203.032 31.1048C204.128 32.0085 205.221 32.9476 206.279 33.8961L205.805 34.4264ZM199.242 29.0179C198.121 28.1688 196.964 27.33 195.805 26.5249L196.21 25.9399C197.378 26.7506 198.542 27.5951 199.671 28.45L199.242 29.0179ZM192.268 24.1754C191.082 23.4213 189.861 22.68 188.639 21.9719L188.995 21.3558C190.225 22.0686 191.455 22.8151 192.649 23.5743L192.268 24.1754Z"
        fill="#EEEEEE"
      />
      <path
        d="M230.626 157.17L229.986 156.861C230.294 156.221 230.596 155.579 230.89 154.935L231.537 155.231C231.24 155.879 230.937 156.526 230.626 157.17Z"
        fill="#EEEEEE"
      />
      <path
        d="M183.92 22.3145L184.591 22.0779L183.422 18.7687L186.805 17.8433L186.617 17.1564L182.497 18.284L183.92 22.3145Z"
        fill="#EEEEEE"
      />
      <path
        d="M228.635 153.648L229.311 153.426L230.404 156.76L233.647 155.425L233.917 156.084L229.967 157.71L228.635 153.648Z"
        fill="#EEEEEE"
      />
    </g>
    <defs>
      <clipPath id="clip0_259_2201">
        <rect width="241" height="222" fill="white" />
      </clipPath>
    </defs>
  </svg>
