<svg
  width="289"
  height="222"
  viewBox="0 0 289 222"
  fill="none"
  xmlns="http://www.w3.org/2000/svg"
>
    <g clip-path="url(#clip0_259_2309)">
      <path
        d="M269.448 191.373L269.942 180.213C275.091 177.447 280.835 175.987 286.675 175.957C278.638 182.559 279.642 195.284 274.194 204.161C272.473 206.917 270.158 209.248 267.419 210.983C264.679 212.717 261.587 213.81 258.37 214.18L251.645 218.317C250.722 213.148 250.926 207.84 252.241 202.758C253.557 197.675 255.954 192.94 259.266 188.878C261.147 186.618 263.304 184.605 265.685 182.886C267.296 187.153 269.448 191.373 269.448 191.373Z"
        fill="#F2F2F2"
      />
      <path
        d="M167.464 221.095C164.039 220.85 163.145 221.529 157.963 221.095H148.462L149.698 198.25L164.655 204.272L238.987 206.106L238.944 206.232C238.91 206.33 235.61 216.029 238.189 219.702L238.296 219.854L238.088 219.856L169.9 220.484C169.155 220.491 168.203 221.148 167.464 221.095Z"
        fill="#F2F2F2"
      />
      <path
        d="M171.32 221.394C164.703 220.921 157.851 223.505 152.133 220.587L147.561 220.866L147.548 220.827C147.513 220.721 145.353 203.65 149.719 197.032L149.911 196.74L150.061 198.308L148.622 219.573L151.812 218.503C159.558 222.167 168.771 219.747 177.638 219.714L237.977 219.49C239.241 219.485 240.294 220.353 240.327 221.424L240.331 221.529L174.964 221.524C173.745 221.524 172.53 221.48 171.32 221.394Z"
        fill="#CCCCCC"
      />
      <path
        d="M234.796 210.713L166.894 209.357L166.824 209.331L150.781 203.29L151.085 202.477L167.058 208.493L234.813 209.845L234.796 210.713Z"
        fill="#E6E6E6"
      />
      <path
        d="M234.434 214.366L166.531 213.01L166.462 212.984L150.419 206.943L150.722 206.13L166.696 212.146L234.451 213.498L234.434 214.366Z"
        fill="#E6E6E6"
      />
      <path
        d="M234.072 218.02L166.169 216.663L166.1 216.637L150.057 210.596L150.36 209.783L166.334 215.799L234.089 217.152L234.072 218.02Z"
        fill="#E6E6E6"
      />
      <path
        d="M171.789 206.342C165.493 205.914 159.355 204.174 153.765 201.232L149.059 198.724L149.182 197.484C149.216 197.302 149.316 197.14 149.463 197.027C149.609 196.915 149.792 196.861 149.976 196.876L150.391 196.881L213.716 197.817C217.861 197.869 221.968 198.618 225.866 200.033L239.663 205.066L239.656 205.139C239.54 206.307 238.368 207.21 236.987 207.194L174.61 206.459C173.666 206.448 172.726 206.409 171.789 206.342Z"
        fill="#E6E6E6"
      />
      <path
        d="M239.531 205.334L239.517 205.333L163.578 203.585L163.526 203.561L149.834 197.191L149.973 196.978L150.389 196.983L163.705 203.182L238.94 204.912L239.543 204.926L239.531 205.334Z"
        fill="#CCCCCC"
      />
      <path
        d="M180.495 197.429L179.532 197.415L157.769 197.091L156.737 197.077C161.71 202.396 172.705 203.727 188.821 201.666L180.495 197.429Z"
        fill="#CCCCCC"
      />
      <path
        d="M241.683 70.2125L243.01 73.3154L240.841 84.3345L218.705 81.2424L218.882 67.8056L219.326 64.8628L241.683 70.2125Z"
        fill="#FFB6B6"
      />
      <path
        d="M253.119 213.024H248.236L245.911 194.099H253.119V213.024Z"
        fill="#FFB6B6"
      />
      <path
        d="M238.593 219.43C238.593 219.986 238.813 220.518 239.204 220.911C239.596 221.304 240.126 221.525 240.679 221.526H249.97L251.572 218.204L252.194 221.526H255.696L254.711 209.662L253.12 209.568L247.771 209.249L246.909 209.194V212.555L239.494 217.702C239.216 217.896 238.989 218.154 238.832 218.455C238.675 218.755 238.593 219.09 238.593 219.43Z"
        fill="#2F2E41"
      />
      <path
        d="M207.981 191.329H203.097L200.224 163.466L209.4 162.916L207.981 191.329Z"
        fill="#FFB6B6"
      />
      <path
        d="M193.454 197.734C193.454 198.29 193.674 198.823 194.065 199.216C194.457 199.609 194.987 199.83 195.54 199.831H204.831L206.433 196.509L207.055 199.831H210.557L209.572 187.966L208.152 187.883L202.71 187.553L201.77 187.499V190.86L194.355 196.007C194.077 196.2 193.85 196.458 193.693 196.759C193.536 197.06 193.454 197.395 193.454 197.734Z"
        fill="#2F2E41"
      />
      <path
        d="M255.192 196.704H255.173L254.234 165.932C254.842 164.754 255.15 163.443 255.132 162.117C255.114 160.79 254.769 159.489 254.129 158.328L253.995 158.083L254.343 156.46C254.791 154.374 254.585 152.199 253.755 150.235L252.879 121.53C256.009 101.148 241.091 87.8551 241.091 87.8551L242.462 77.1721L218.333 77.7231L218.744 87.8551L213.946 104.417C211.421 129.132 194.428 144.667 197.01 168.302C197.016 168.369 197.006 168.438 196.981 168.501C196.719 169.302 196.627 170.149 196.71 170.987C196.794 171.826 197.051 172.638 197.466 173.37C197.574 173.557 197.647 173.762 197.684 173.974C198.217 178.118 198.286 172.877 198.991 176.983L198.854 177.053C198.36 177.225 198.148 177.912 198.38 178.589C198.613 179.266 199.202 179.676 199.696 179.505L212.595 179.643C213.089 179.472 213.301 178.784 213.068 178.107C212.836 177.43 212.247 177.02 211.753 177.192L210.95 177.599L212.293 173.186L212.763 172.745C212.989 172.533 213.164 172.273 213.275 171.984C213.386 171.695 213.431 171.385 213.406 171.076C213.381 170.767 213.287 170.468 213.131 170.201C212.974 169.933 212.76 169.705 212.503 169.533L213.841 162.362L213.651 156.938L214.042 150.785L230.967 126.145L237.814 160.18L244.808 197.047C244.645 197.194 244.523 197.382 244.452 197.591C244.382 197.8 244.367 198.024 244.407 198.241C244.472 198.544 244.639 198.815 244.881 199.008C245.122 199.201 245.423 199.303 245.731 199.297H255.226C255.425 199.297 255.622 199.251 255.8 199.162C255.978 199.073 256.134 198.944 256.254 198.785C256.375 198.626 256.457 198.441 256.495 198.244C256.533 198.048 256.525 197.845 256.472 197.653C256.392 197.375 256.223 197.132 255.992 196.961C255.761 196.789 255.48 196.699 255.192 196.704Z"
        fill="#2F2E41"
      />
      <path
        d="M246.749 17.8511C246.749 19.8158 246.27 21.7506 245.353 23.4858C244.435 25.2209 243.108 26.7032 241.488 27.8027C239.867 28.9022 238.003 29.5852 236.058 29.7917C234.113 29.9982 232.148 29.7219 230.334 28.9872C228.521 28.2524 226.914 27.0815 225.656 25.5774C224.398 24.0733 223.527 22.2819 223.119 20.3605C222.711 18.4391 222.778 16.4464 223.316 14.5573C223.853 12.6683 224.844 10.9407 226.201 9.52608L226.258 9.46853C226.354 9.36767 226.449 9.26686 226.55 9.17081L226.551 9.17046L226.553 9.16942L226.554 9.16785L226.554 9.166C226.691 9.0655 226.818 8.9513 226.932 8.82514C228.545 6.56098 230.373 4.66244 234.802 5.84853C241.179 7.55612 246.749 11.2209 246.749 17.8511Z"
        fill="#2F2E41"
      />
      <path
        d="M181.125 12.7129C181.098 13.3551 181.211 13.9954 181.457 14.5888C181.703 15.1822 182.075 15.7142 182.548 16.1473C183.02 16.5805 183.582 16.9042 184.193 17.0958C184.803 17.2873 185.448 17.342 186.082 17.256L216.891 42.6599L221.597 34.3496L189.833 11.9916C189.619 10.9311 189.025 9.98649 188.163 9.33671C187.302 8.68693 186.233 8.37715 185.16 8.46607C184.087 8.55498 183.083 9.03642 182.339 9.81915C181.595 10.6019 181.163 11.6315 181.125 12.7129Z"
        fill="#FFB6B6"
      />
      <path
        d="M229.9 50.1518C229.9 50.1518 229.891 49.2369 224.993 49.272C218.914 49.3157 202.17 40.5465 203.635 32.2878C202.94 32.6035 202.159 32.6778 201.417 32.499C200.676 32.3201 200.014 31.8984 199.537 31.3002L207.688 23.4153C210.245 23.5889 210.272 25.3085 210.053 26.2959L216.603 28.9112L233.665 38.7597L230.652 48.6523L229.9 50.1518Z"
        fill="#982623"
      />
      <path
        d="M231.859 30.6929C237.391 30.6929 241.876 26.1868 241.876 20.6282C241.876 15.0696 237.391 10.5635 231.859 10.5635C226.326 10.5635 221.841 15.0696 221.841 20.6282C221.841 26.1868 226.326 30.6929 231.859 30.6929Z"
        fill="#FFB7B7"
      />
      <path
        d="M218.091 70.6889C217.538 71.4309 217.255 72.3414 217.291 73.2679C217.326 74.1943 217.678 75.0802 218.287 75.777C218.292 76.0722 218.336 76.3577 218.752 77.4156C218.807 77.5182 218.871 77.6154 218.943 77.706C218.957 77.7281 218.971 77.7494 218.987 77.7699C219.426 78.3398 220.035 78.7522 220.726 78.946L239.063 84.0883L241.487 84.7673L241.913 84.8854L242.149 81.559C242.694 81.1049 243.059 80.4697 243.179 79.7684C243.298 79.067 243.164 78.3459 242.8 77.7355L242.462 77.1745L244.431 71.8552L244.622 71.3286L249.642 57.7522L249.647 56.8467L249.657 55.9118L249.706 49.3868C249.708 47.3303 249.236 45.3013 248.327 43.4589C247.418 41.6164 246.096 40.0107 244.465 38.7678C242.98 37.6275 241.268 36.8219 239.445 36.4058L239.406 36.4009L237.422 33.719L229.375 34.526L228.709 35.8989L227.901 37.5523L222.068 41.0412L220.074 45.6962L218.728 48.8455C216.641 50.3513 215.397 52.2852 215.04 54.5881C214.276 59.4794 217.684 64.3756 218.091 64.9365L218.194 70.5512L218.091 70.6889Z"
        fill="#982623"
      />
      <path
        d="M242.343 23.2667C242.252 23.2523 242.161 23.2331 242.07 23.2187C240.508 22.9402 238.945 22.6666 237.387 22.3833L237.244 18.8354L235.357 22.0136C231.051 23.4491 227.023 22.6378 223.233 20.847C221.983 20.2508 220.771 19.579 219.602 18.8354C219.217 12.835 221.631 8.99364 226.124 9.39651C226.288 9.41123 226.406 9.24291 226.55 9.17082L226.551 9.17048L226.553 9.16943L226.554 9.16786L226.554 9.16601C226.798 9.05079 227.047 8.94038 227.295 8.83958C229.24 8.07575 231.362 7.8823 233.412 8.28174C235.463 8.68118 237.358 9.65709 238.878 11.096C241.937 14.0295 243.313 18.8738 242.343 23.2667Z"
        fill="#2F2E41"
      />
      <path
        d="M242.07 23.2187C242.07 23.2187 239.103 12.0899 226.382 9.52128C226.368 9.51653 226.32 9.49731 226.258 9.46854C226.22 9.44451 226.172 9.42048 226.124 9.39651C226.268 9.31487 226.406 9.24291 226.55 9.17082L226.552 9.17047L226.553 9.16943L226.554 9.16786L226.554 9.16601C226.679 9.05079 226.803 8.93557 226.932 8.82516L227.295 8.83957C227.295 8.83957 240.059 6.80874 242.07 23.2187Z"
        fill="#FD6584"
      />
      <path
        d="M246.964 93.3721C246.728 93.5744 246.442 93.7077 246.136 93.7574C245.83 93.8072 245.517 93.7714 245.23 93.6541C244.658 93.4107 244.151 93.0379 243.747 92.5649C242.1 90.8283 240.922 88.6964 240.328 86.3727L240.877 85.3905C240.662 84.1792 240.865 82.9303 241.453 81.8509C242.041 80.7715 242.978 79.9267 244.11 79.4566C244.754 79.1821 245.468 79.1198 246.15 79.2784C246.487 79.3627 246.796 79.5372 247.044 79.7834C247.291 80.0295 247.468 80.3383 247.555 80.677C247.767 81.7277 246.895 82.6763 246.013 83.2795C244.476 84.3276 242.7 84.9663 240.85 85.1358C243.113 86.4171 245.069 88.1808 246.58 90.3028C246.93 90.7455 247.188 91.2539 247.339 91.7982C247.411 92.0712 247.415 92.358 247.349 92.6327C247.284 92.9075 247.152 93.1616 246.964 93.3721Z"
        fill="#2F2E41"
      />
      <path
        d="M120.341 221.883H288.461C288.604 221.883 288.741 221.826 288.842 221.725C288.943 221.623 289 221.485 289 221.342C289 221.198 288.943 221.061 288.842 220.959C288.741 220.858 288.604 220.801 288.461 220.801H120.341C120.198 220.801 120.061 220.858 119.96 220.959C119.859 221.061 119.802 221.198 119.802 221.342C119.802 221.485 119.859 221.623 119.96 221.725C120.061 221.826 120.198 221.883 120.341 221.883Z"
        fill="#CCCCCC"
      />
      <path
        d="M164.99 82.7764V83.0591C164.384 82.3462 163.767 81.6395 163.155 80.9327C162.898 80.6377 162.641 80.3427 162.384 80.0477C161.295 78.8062 160.2 77.5688 159.099 76.3355C157.992 75.1063 156.885 73.8771 155.765 72.6541C155.496 72.3591 155.227 72.0641 154.952 71.7691C154.732 71.5212 154.492 71.291 154.236 71.0807C153.978 70.8647 153.681 70.7 153.361 70.5952C152.994 70.4928 152.606 70.4886 152.236 70.583C151.814 70.6813 151.41 70.835 151 70.964C150.578 71.1053 150.162 71.2405 149.74 71.3757C148.896 71.6523 148.058 71.929 147.214 72.2055C147.203 72.2096 147.193 72.2117 147.182 72.2117C147.171 72.2116 147.16 72.2093 147.15 72.2051C147.139 72.2008 147.13 72.1945 147.123 72.1866C147.115 72.1788 147.109 72.1695 147.105 72.1593L147.104 72.1563C147.099 72.1446 147.097 72.1321 147.097 72.1195C147.098 72.1069 147.101 72.0946 147.107 72.0835C147.113 72.0723 147.121 72.0626 147.131 72.055C147.141 72.0474 147.152 72.0421 147.165 72.0395C147.373 71.9719 147.587 71.9044 147.801 71.8367C148.651 71.554 149.495 71.2775 150.346 71.0009C150.768 70.8595 151.19 70.7243 151.612 70.5891C152.003 70.4397 152.417 70.3566 152.835 70.3433C153.519 70.3926 154.159 70.6948 154.634 71.1914C154.897 71.4372 155.135 71.6953 155.374 71.9596C155.655 72.2669 155.937 72.5742 156.218 72.8815C157.35 74.123 158.473 75.3686 159.589 76.6182C160.708 77.872 161.817 79.1279 162.916 80.3857C162.996 80.4779 163.075 80.5701 163.155 80.6623C163.773 81.3629 164.378 82.0697 164.99 82.7764Z"
        fill="white"
      />
      <path
        d="M154.141 72.2131C153.91 71.914 153.602 71.684 153.25 71.548L152.903 71.5603C155.633 75.8287 159.21 79.4857 163.41 82.3028C160.32 78.9395 157.231 75.5763 154.141 72.2131Z"
        fill="white"
      />
      <path
        d="M211.118 116.572L197.26 42.022C197.023 40.793 196.378 39.6815 195.429 38.8696C194.481 38.0577 193.286 37.5937 192.041 37.5535C191.929 37.551 191.817 37.551 191.705 37.5535L182.264 37.8938L181.249 37.9313L176.537 38.1014L175.521 38.1365L172.49 38.2466L111.381 40.4507C111.289 40.4557 111.194 40.4557 111.102 40.4532L97.4087 40.1655L92.3411 40.0604L92.1793 40.0579L88.439 39.9779L55.8473 39.2973L47.2064 39.1147L42.9456 39.0271L41.9247 39.0046L37.0663 38.9045L36.0478 38.882L31.0774 38.7794L30.0589 38.7569L24.5979 38.6418L23.7413 38.6243L18.8704 38.5217L18.101 38.5067H17.9889C16.6958 38.512 15.4462 38.9765 14.461 39.818C13.4758 40.6595 12.8185 41.8239 12.6051 43.1053L0.0719893 120.465C-0.055284 121.248 -0.0114653 122.05 0.2004 122.815C0.412265 123.58 0.787104 124.29 1.29897 124.895C1.81084 125.5 2.44749 125.986 3.16482 126.319C3.88215 126.652 4.66301 126.825 5.45329 126.824H77.4298C78.4892 126.827 79.5202 127.169 80.3733 127.8L81.7379 128.816C82.6784 129.512 83.8148 129.888 84.9826 129.892C98.8839 126.206 113.499 126.206 127.401 129.892C128.117 129.894 128.827 129.753 129.489 129.477C130.151 129.201 130.753 128.796 131.258 128.286C132.122 127.418 133.275 126.902 134.495 126.837L206.043 123.049C206.819 123.008 207.577 122.802 208.267 122.442C208.957 122.083 209.563 121.58 210.043 120.967C210.524 120.354 210.868 119.644 211.054 118.886C211.239 118.128 211.261 117.339 211.118 116.572Z"
        fill="#CCCCCC"
      />
      <path
        d="M191.511 104.946C191.419 107.473 190.333 109.859 188.49 111.581C186.648 113.302 184.2 114.219 181.686 114.128C177.531 113.98 172.573 113.907 167.192 114.019C149.619 114.397 127.542 116.827 114.262 125.566C112.592 126.666 110.62 127.21 108.626 127.119C108.479 127.11 108.336 127.102 108.189 127.089C106.122 126.899 104.173 126.031 102.644 124.62C95.3281 117.894 78.5498 109.75 40.1431 109.177C39.9833 109.177 39.8279 109.168 39.6724 109.16C38.4284 109.081 37.2121 108.757 36.0929 108.206C34.9738 107.654 33.9737 106.887 33.1498 105.947C32.326 105.008 31.6946 103.914 31.2917 102.729C30.8888 101.544 30.7223 100.291 30.8017 99.0408L34.5763 38.8534L35.142 29.8324L36.1353 14.0512C36.2355 12.4619 36.9341 10.9705 38.0892 9.88008C39.2444 8.78964 40.7693 8.18192 42.3543 8.18039H42.3932L65.274 8.3149C74.9134 8.75315 82.8973 9.98689 89.2257 12.0161C91.3874 12.6896 93.4905 13.5401 95.5138 14.5589C98.2774 15.905 100.76 17.7679 102.83 20.0478C104.119 21.5043 105.877 22.4582 107.796 22.7424C108.094 22.787 108.394 22.8146 108.695 22.8248C110.465 22.8984 112.211 22.3962 113.674 21.3929C128.621 11.3306 159.082 10.5669 175.903 11.0008C178.256 11.0559 180.503 11.9889 182.209 13.618C183.914 15.2471 184.955 17.4557 185.128 19.8135L185.81 28.7911L186.488 37.7426L190.401 89.4775L191.489 103.87C191.516 104.228 191.523 104.588 191.511 104.946Z"
        fill="#F2F2F2"
      />
      <path
        d="M45.8355 29.3594C59.624 24.9395 75.0069 26.1096 88.0696 32.3364C91.7967 34.1038 95.3167 36.2821 98.5648 38.831C99.4836 39.5555 100.791 38.2595 99.8624 37.5272C87.8646 28.1775 72.7895 23.736 57.6661 25.095C53.4821 25.4711 49.3515 26.3049 45.3476 27.5815C44.2267 27.9408 44.7058 29.7215 45.8355 29.3594Z"
        fill="#3F3D56"
      />
      <path
        d="M121.709 39.5462C134.529 32.7763 149.88 31.3 163.818 35.1429C167.792 36.2359 171.632 37.7699 175.268 39.7168C176.31 40.2752 177.238 38.6842 176.194 38.1248C162.91 31.0029 146.963 29.3634 132.457 33.3335C128.41 34.4429 124.495 35.9923 120.783 37.9541C119.737 38.5064 120.663 40.0984 121.709 39.5462Z"
        fill="#3F3D56"
      />
      <path
        d="M121.709 51.8381C134.529 45.0681 149.88 43.5918 163.818 47.4347C167.792 48.5277 171.632 50.0618 175.268 52.0087C176.31 52.5671 177.238 50.976 176.194 50.4166C162.91 43.2948 146.963 41.6553 132.457 45.6253C128.41 46.7348 124.495 48.2842 120.783 50.246C119.737 50.7983 120.663 52.3902 121.709 51.8381Z"
        fill="#3F3D56"
      />
      <path
        d="M176.643 63.4705C176.653 63.3123 176.615 63.1548 176.535 63.0185C176.454 62.8822 176.334 62.7734 176.191 62.7063C165.549 57.1076 153.483 54.8368 141.545 56.1862C141.471 56.1922 141.402 56.2043 141.321 56.2103H141.318C141.244 56.2169 141.171 56.2279 141.099 56.2434C133.999 57.0643 127.111 59.1973 120.783 62.5348C120.645 62.6174 120.531 62.7346 120.452 62.8749C120.372 63.0152 120.331 63.1738 120.331 63.3352V86.2654C120.333 86.4065 120.367 86.5452 120.431 86.6711C120.494 86.797 120.585 86.9067 120.697 86.9919C120.809 87.0771 120.939 87.1356 121.077 87.163C121.215 87.1904 121.357 87.186 121.493 87.15C121.774 87.0688 122.056 86.9905 122.343 86.9153C128.741 85.1755 135.308 84.1433 141.929 83.8373C142.069 83.8312 142.21 83.8252 142.357 83.8192C147.749 83.5865 153.152 83.7817 158.513 84.4029C158.626 84.4093 158.738 84.4213 158.849 84.439C159.124 84.4691 159.406 84.5022 159.681 84.5383C159.792 84.5503 159.897 84.5623 159.999 84.5804C161.071 84.7158 162.134 84.8692 163.2 85.0347C164.739 85.2815 166.279 85.5563 167.818 85.8592C167.914 85.8772 168.013 85.9013 168.111 85.9194C170.582 86.4128 173.041 86.9845 175.487 87.6163C175.624 87.6516 175.766 87.6554 175.904 87.6274C176.042 87.5993 176.172 87.5402 176.284 87.4545C176.396 87.3687 176.487 87.2586 176.55 87.1323C176.613 87.0061 176.647 86.8671 176.649 86.7257V63.5066C176.65 63.4943 176.648 63.4819 176.643 63.4705Z"
        fill="#3F3D56"
      />
      <path
        d="M142.984 57.4365C142.312 57.1057 141.541 57.0377 140.822 57.2457C140.504 57.3654 140.213 57.5473 139.966 57.7809C139.719 58.0146 139.52 58.2952 139.382 58.6065C139.132 59.2035 138.973 59.8344 138.908 60.4785C138.87 60.7318 138.867 61.0515 139.121 61.1698C139.213 61.2033 139.312 61.211 139.408 61.1919C139.504 61.1728 139.593 61.1277 139.665 61.0614C139.796 60.9318 139.904 60.7806 139.984 60.6144C140.424 59.9264 141.03 59.361 141.745 58.9704C142.46 58.5798 143.262 58.3765 144.076 58.3794L144.753 58.6507C144.22 58.1684 143.625 57.76 142.984 57.4365Z"
        fill="#FF6582"
      />
      <path
        d="M150.317 62.7216C149.791 61.9439 149.168 61.1136 148.192 60.8597C147.062 60.5656 145.902 61.1498 144.917 61.7263C141.989 63.4393 139.154 65.3075 136.424 67.3227L136.427 67.3529L142.765 66.962C144.291 66.8679 145.87 66.7608 147.219 66.115C147.703 65.8099 148.244 65.6074 148.81 65.5199C149.16 65.539 149.503 65.6276 149.82 65.7807C150.136 65.9338 150.419 66.1483 150.652 66.4119C153.573 69.1935 154.418 73.4473 157.695 75.8911C155.61 71.3 153.142 66.8944 150.317 62.7216Z"
        fill="white"
      />
      <path
        d="M142.358 83.8188C142.211 83.8249 142.071 83.8311 141.93 83.8372C140.908 83.4685 139.862 83.1427 138.804 82.86C138.119 82.6756 137.422 82.5097 136.724 82.3684C135.935 82.1963 135.14 82.0611 134.345 81.9442C132.831 81.723 131.305 81.5938 129.775 81.5571C129.764 81.5584 129.752 81.5572 129.741 81.5536C129.73 81.55 129.719 81.5441 129.711 81.5363C129.702 81.5284 129.695 81.5189 129.69 81.5082C129.686 81.4974 129.683 81.4859 129.683 81.4741C129.683 81.4624 129.686 81.4508 129.69 81.4401C129.695 81.4294 129.702 81.4199 129.711 81.412C129.719 81.4042 129.73 81.3983 129.741 81.3947C129.752 81.3911 129.764 81.3899 129.775 81.3912C129.971 81.3912 130.167 81.3973 130.356 81.4096C131.889 81.4665 133.417 81.6164 134.932 81.8583C135.721 81.9873 136.51 82.141 137.293 82.3131C138.003 82.4729 138.712 82.6511 139.41 82.8478C140.407 83.1304 141.389 83.4541 142.358 83.8188Z"
        fill="white"
      />
      <path
        d="M160 84.5809C159.896 84.5624 159.792 84.5501 159.682 84.5379C159.26 84.1876 158.832 83.8557 158.385 83.5299C157.828 83.1243 157.253 82.7433 156.666 82.3868C155.366 81.5936 154.008 80.8993 152.604 80.3095C150.385 79.3811 148.088 78.653 145.741 78.1338C143.063 77.5444 140.352 77.1175 137.624 76.8555C134.895 76.5727 132.155 76.4007 129.414 76.2286C129.298 76.2224 129.292 76.0504 129.414 76.0565C129.757 76.0811 130.099 76.0995 130.448 76.1241C133.219 76.2962 135.99 76.4929 138.743 76.8063C141.472 77.1003 144.18 77.5724 146.848 78.2198C149.126 78.7839 151.349 79.551 153.491 80.5123C154.723 81.0684 155.917 81.707 157.064 82.4236C157.791 82.8846 158.495 83.3763 159.168 83.8987C159.449 84.1199 159.731 84.3412 160 84.5809Z"
        fill="white"
      />
      <path
        d="M158.85 84.4395C158.738 84.4215 158.626 84.4092 158.513 84.4026C158.385 84.2982 158.25 84.1998 158.116 84.1015C157.174 83.4242 156.191 82.8064 155.173 82.2515C154.249 81.7467 153.3 81.2893 152.329 80.881C150.111 79.9499 147.814 79.2217 145.465 78.7054C142.788 78.116 140.077 77.6891 137.348 77.4271C134.62 77.1443 131.879 76.9723 129.139 76.8002C129.023 76.7879 129.023 76.6219 129.139 76.6281C129.488 76.6527 129.83 76.6711 130.173 76.6957C132.944 76.8677 135.715 77.0644 138.468 77.3779C141.197 77.6718 143.904 78.144 146.573 78.7915C148.851 79.3544 151.074 80.1216 153.216 81.0839C154.023 81.4526 154.812 81.8521 155.583 82.2885C156.726 82.919 157.818 83.6382 158.85 84.4395Z"
        fill="white"
      />
      <path
        d="M168.111 85.9207C168.013 85.9023 167.915 85.8777 167.818 85.8593C167.707 85.7425 167.603 85.6196 167.499 85.4966C166.973 84.8882 166.453 84.2736 165.94 83.6528C163.915 81.2314 161.994 78.7361 160.183 76.1917C158.63 74.016 157.155 71.7973 155.761 69.5356C155.094 68.4663 154.452 67.3846 153.822 66.2906C153.332 65.4425 152.855 64.5923 152.39 63.7401C152.256 63.4942 152.127 63.2483 151.999 63.0025C151.699 62.4247 151.399 61.8409 151.081 61.2694C150.735 60.5691 150.228 59.9622 149.601 59.4993C149.287 59.2885 148.925 59.1635 148.548 59.1368C148.018 59.1387 147.497 59.2739 147.031 59.53C143.609 61.1313 140.381 63.1212 137.409 65.4609C134.507 67.7287 131.883 70.3344 129.592 73.2232C129.518 73.3092 129.359 73.2293 129.426 73.1371C129.702 72.793 129.983 72.4488 130.264 72.1107C132.467 69.4936 134.947 67.1257 137.66 65.0491C137.666 65.0429 137.678 65.0368 137.685 65.0307C137.923 64.8402 138.162 64.6558 138.406 64.4776C139.921 63.3567 141.498 62.3225 143.129 61.38C143.961 60.8945 144.811 60.4335 145.68 59.9972C145.894 59.8866 146.114 59.7759 146.334 59.6714C146.554 59.5608 146.775 59.4564 146.995 59.3518C147.431 59.1285 147.907 58.9968 148.396 58.9647C150.096 58.9401 150.971 60.661 151.576 61.8225C151.766 62.1852 151.962 62.5477 152.152 62.9103C152.886 64.2809 153.65 65.6453 154.446 66.9912C154.929 67.8271 155.43 68.6568 155.938 69.4804C156.666 70.6543 157.412 71.8158 158.189 72.9713C158.189 72.9721 158.189 72.9729 158.19 72.9736C158.19 72.9744 158.19 72.975 158.191 72.9756C158.191 72.9762 158.192 72.9766 158.193 72.977C158.193 72.9773 158.194 72.9774 158.195 72.9775C159.094 74.3418 160.03 75.6816 160.997 77.0153C162.655 79.2954 164.392 81.5244 166.209 83.7021C166.833 84.4518 167.467 85.1914 168.111 85.9207Z"
        fill="white"
      />
      <path
        d="M146.287 58.7773L146.118 58.8517C145.73 58.1941 145.187 57.6429 144.536 57.2471C143.886 56.8513 143.148 56.6232 142.388 56.583C139.884 56.4042 137.684 58.0811 137.484 60.3206C137.403 61.2428 137.668 62.1621 138.228 62.8972L138.071 62.9904C137.488 62.225 137.211 61.2676 137.296 60.3072C137.504 57.975 139.795 56.2287 142.403 56.4149C143.194 56.4568 143.963 56.6943 144.64 57.1065C145.318 57.5186 145.883 58.0926 146.287 58.7773Z"
        fill="#FF6582"
      />
      <path
        d="M133.912 63.3085C133.255 63.0213 132.539 62.8954 131.824 62.9411C131.108 62.9869 130.414 63.203 129.799 63.5716C132.046 63.9181 134.275 64.3832 136.474 64.9649C135.563 64.4877 134.851 63.74 133.912 63.3085Z"
        fill="white"
      />
      <path
        d="M129.786 63.5696L129.538 63.7495C129.622 63.6865 129.709 63.6275 129.799 63.5716L129.786 63.5696Z"
        fill="white"
      />
      <path
        d="M137.24 64.613C137.141 64.5147 137.043 64.4163 136.944 64.318C136.182 63.4854 135.265 62.8113 134.245 62.334C133.726 62.1142 133.169 61.9987 132.605 61.994C132.023 62.0076 131.447 62.1199 130.902 62.3261C130.645 62.4177 130.395 62.5217 130.148 62.6324C129.865 62.7595 129.588 62.8949 129.312 63.0315C128.795 63.2878 128.283 63.5553 127.779 63.8341C126.775 64.3888 125.803 64.9859 124.862 65.6253C124.375 65.9569 123.897 66.2993 123.429 66.6527C122.995 66.9809 122.568 67.3179 122.151 67.6638C122.062 67.7374 121.929 67.6182 122.018 67.5446C122.128 67.453 122.239 67.3619 122.35 67.272C122.665 67.018 122.984 66.7688 123.308 66.5245C123.899 66.0783 124.506 65.6493 125.128 65.2375C126.095 64.5968 127.096 63.9995 128.13 63.4457C128.646 63.1692 129.17 62.9043 129.701 62.651C129.861 62.5746 130.023 62.4998 130.187 62.429C130.562 62.2602 130.948 62.1195 131.344 62.008C131.911 61.8448 132.504 61.7927 133.09 61.8546C133.652 61.9266 134.197 62.0952 134.701 62.3531C135.702 62.9163 136.604 63.6391 137.373 64.4933C137.453 64.5742 137.321 64.694 137.24 64.613Z"
        fill="white"
      />
      <path
        d="M45.8355 41.6513C59.624 37.2313 75.0069 38.4015 88.0696 44.6282C91.7967 46.3957 95.3168 48.5739 98.5648 51.1228C99.4836 51.8473 100.791 50.5514 99.8624 49.8191C87.8646 40.4694 72.7895 36.0278 57.6661 37.3868C53.4821 37.763 49.3515 38.5968 45.3476 39.8733C44.2267 40.2326 44.7058 42.0134 45.8355 41.6513Z"
        fill="#3F3D56"
      />
      <path
        d="M45.8355 53.9431C59.624 49.5232 75.0069 50.6934 88.0696 56.9201C91.7967 58.6875 95.3168 60.8658 98.5648 63.4147C99.4836 64.1392 100.791 62.8432 99.8624 62.1109C87.8646 52.7612 72.7895 48.3197 57.6661 49.6787C53.4821 50.0549 49.3515 50.8886 45.3476 52.1652C44.2267 52.5245 44.7058 54.3052 45.8355 53.9431Z"
        fill="#3F3D56"
      />
      <path
        d="M45.8355 66.235C59.624 61.8151 75.0069 62.9852 88.0696 69.2119C91.7967 70.9794 95.3167 73.1576 98.5648 75.7065C99.4836 76.4311 100.791 75.1351 99.8624 74.4028C87.8646 65.0531 72.7895 60.6115 57.6661 61.9705C53.4821 62.3467 49.3515 63.1805 45.3476 64.457C44.2267 64.8163 44.7058 66.5971 45.8355 66.235Z"
        fill="#3F3D56"
      />
      <path
        d="M45.8355 78.5268C59.624 74.1069 75.0069 75.2771 88.0696 81.5038C91.7967 83.2713 95.3168 85.4495 98.5648 87.9984C99.4836 88.7229 100.791 87.427 99.8624 86.6947C87.8646 77.3449 72.7895 72.9034 57.6661 74.2624C53.4821 74.6386 49.3515 75.4723 45.3476 76.7489C44.2267 77.1082 44.7058 78.889 45.8355 78.5268Z"
        fill="#3F3D56"
      />
      <path
        d="M45.8355 90.8187C59.624 86.3988 75.0069 87.5689 88.0696 93.7957C91.7967 95.5631 95.3168 97.7414 98.5648 100.29C99.4836 101.015 100.791 99.7188 99.8624 98.9865C87.8646 89.6368 72.7895 85.1953 57.6661 86.5543C53.4821 86.9304 49.3515 87.7642 45.3476 89.0408C44.2267 89.4001 44.7058 91.1808 45.8355 90.8187Z"
        fill="#3F3D56"
      />
      <path
        d="M95.5139 14.5588V44.0343C95.5139 44.62 94.4946 45.1104 93.1213 45.2449C93.1096 45.2442 93.0979 45.2456 93.0867 45.2492C92.8578 45.2666 92.616 45.2796 92.3698 45.2796C91.6126 45.2935 90.8592 45.1701 90.1457 44.9151C90.0809 44.8891 90.0161 44.8587 89.9513 44.8327C89.8909 44.7979 89.8261 44.7676 89.7656 44.7329C89.4244 44.5289 89.2258 44.2903 89.2258 44.0343V12.0161C91.3874 12.6896 93.4905 13.54 95.5139 14.5588Z"
        fill="#982623"
      />
      <path
        d="M108.694 21.3952H107.795V126.503H108.694V21.3952Z"
        fill="#E6E6E6"
      />
      <path
        d="M206.393 93.3487C207.03 93.2902 207.647 93.092 208.2 92.7682C208.752 92.4444 209.227 92.0027 209.592 91.4744C209.956 90.9461 210.201 90.3439 210.308 89.7103C210.416 89.0768 210.384 88.4272 210.215 87.8073L228.862 79.0617L240.089 60.8163L231.264 57.2368L223.691 71.9395L204.522 84.7733C203.505 85.1279 202.652 85.8453 202.126 86.7895C201.599 87.7336 201.436 88.839 201.667 89.896C201.897 90.953 202.506 91.8883 203.377 92.5247C204.248 93.1611 205.321 93.4543 206.393 93.3487Z"
        fill="#FFB6B6"
      />
      <path
        d="M247.014 43.3376C247.014 43.3376 249.211 44.0584 246.799 48.3411C244.868 51.7698 235.461 71.5195 231.622 75.3973C232.026 76.0477 232.203 76.8146 232.126 77.5772C232.048 78.3399 231.72 79.0549 231.193 79.6097L222.33 72.5431C222.161 69.973 223.854 69.718 224.857 69.8047L226.896 62.5439L234.008 44.6327L245.434 42.7883L247.014 43.3376Z"
        fill="#982623"
      />
      <path
        d="M247.205 9.76651C247.624 8.06419 250.664 6.80725 245.456 4.43061C244.193 3.85382 244.245 1.86747 243.176 0.977916C242.107 0.08836 240.541 -0.324049 239.299 0.297716C238.189 0.85295 237.564 2.10946 237.43 3.34771C237.367 4.59397 237.51 5.84221 237.854 7.04118L237.753 7.18937C239.816 8.77535 241.879 10.3613 243.942 11.9472C244.7 12.53 245.691 13.1403 246.54 12.703C247.502 12.2079 246.946 10.8205 247.205 9.76651Z"
        fill="#2F2E41"
      />
    </g>
    <defs>
      <clipPath id="clip0_259_2309">
        <rect width="289" height="222" fill="white" />
      </clipPath>
    </defs>
  </svg>
