<svg
  width="328"
  height="208"
  viewBox="0 0 328 208"
  fill="none"
  xmlns="http://www.w3.org/2000/svg"
>
    <g clip-path="url(#clip0_288_2300)">
      <path
        d="M30.0198 146.685C28.5082 146.847 26.8578 147.091 25.1022 147.45C17.6638 148.966 17.5059 154.015 17.5729 155.172L17.5203 155.138C16.774 156.338 16.3053 157.553 16.0182 158.695L15.6786 143.218C15.8986 142.759 16.0996 142.238 16.267 141.708C16.8219 143.424 17.7355 145.04 18.5248 144.935C19.5485 144.796 19.9934 141.784 19.802 139.647C21.1032 141.32 23.2941 143.113 24.1216 142.559C24.7818 142.119 24.3895 140.302 23.672 138.648C25.174 139.551 26.8387 140.144 27.3553 139.57C28.0585 138.786 26.3699 136.113 24.8152 134.622C26.8961 134.818 29.5462 134.483 29.7232 133.536C29.8667 132.757 28.2881 131.772 26.5995 131.136C28.2929 130.691 29.881 129.912 29.8284 129.142C29.7662 128.229 27.4127 127.612 25.3797 127.521C26.9104 126.326 28.3168 124.667 27.8863 123.921C27.4893 123.233 25.6524 123.5 23.9542 124.108C24.9587 122.673 25.6667 121.052 25.1262 120.498C24.4565 119.809 22.079 121 20.4526 122.315C20.7683 120.264 20.6105 117.677 19.6872 117.443C18.9171 117.247 17.8264 118.753 17.0802 120.393C16.7501 118.671 16.0804 117.036 15.3103 117.036C14.21 117.036 13.3203 120.35 13.3203 122.511C13.3203 122.635 13.3203 122.75 13.3299 122.86C13.2198 122.731 13.0907 122.597 12.9472 122.458C11.3973 120.952 8.398 119.283 7.62784 120.072C7.09208 120.627 7.79527 122.243 8.79982 123.682C7.10165 123.075 5.25997 122.807 4.86772 123.496C4.33674 124.418 6.60894 126.728 8.4554 127.847C8.34538 127.832 8.22579 127.823 8.10142 127.813C5.94402 127.665 2.57639 128.33 2.49985 129.424C2.44723 130.194 4.03059 130.974 5.72876 131.418C4.04016 132.054 2.46636 133.039 2.60509 133.818C2.7773 134.765 5.4274 135.1 7.51304 134.904C5.95837 136.396 4.26977 139.068 4.97296 139.852C5.48958 140.426 7.15427 139.833 8.65631 138.93C7.93399 140.584 7.54652 142.401 8.20666 142.841C9.07727 143.424 11.4738 141.392 12.7319 139.647C12.6028 141.784 13.1146 144.72 14.1287 144.834C14.5545 144.882 15.0041 144.428 15.4107 143.735L14.2627 160.369C13.9948 162.305 15.7121 163.572 15.8652 164.366L16.1139 175.631C15.8317 174.827 15.4586 174.005 14.9467 173.192L14.8941 173.226C14.9611 172.069 14.8032 167.02 7.36475 165.504C5.60917 165.145 3.95884 164.902 2.44723 164.739C0.662954 164.548 -0.0354483 166.991 1.57662 167.78C3.911 168.923 6.10666 170.362 7.25472 172.064C10.1823 176.42 14.2244 173.905 14.8032 173.513C15.4442 174.584 15.8652 175.659 16.133 176.683L16.267 182.664C16.2335 182.807 16.2144 182.884 16.2096 182.889L16.2718 182.908L16.5923 197.386L19.5485 197.362L18.4913 182.564C18.6683 181.765 19.2137 179.045 18.4913 176.224L17.4342 164.596L16.0565 160.025C16.2574 158.609 16.7214 157.022 17.6686 155.449C18.2426 155.841 22.2895 158.361 25.2171 154C26.3603 152.298 28.5608 150.859 30.8952 149.716C32.5072 148.927 31.8136 146.484 30.0246 146.675L30.0198 146.685ZM16.5157 180.938L16.4583 178.404C16.5683 179.36 16.5636 180.226 16.5157 180.938Z"
        fill="#D1D1D1"
      />
      <path
        d="M203.711 198.586C217.978 198.586 229.543 187.026 229.543 172.767C229.543 158.508 217.978 146.948 203.711 146.948C189.445 146.948 177.88 158.508 177.88 172.767C177.88 187.026 189.445 198.586 203.711 198.586Z"
        fill="#3F3D56"
      />
      <path
        d="M203.712 189.979C213.222 189.979 220.932 182.273 220.932 172.767C220.932 163.261 213.222 155.554 203.712 155.554C194.201 155.554 186.491 163.261 186.491 172.767C186.491 182.273 194.201 189.979 203.712 189.979Z"
        fill="white"
      />
      <path
        d="M203.712 182.568C209.127 182.568 213.518 178.18 213.518 172.767C213.518 167.353 209.127 162.965 203.712 162.965C198.296 162.965 193.905 167.353 193.905 172.767C193.905 178.18 198.296 182.568 203.712 182.568Z"
        fill="#3F3D56"
      />
      <path
        d="M54.4639 198.586C68.7301 198.586 80.2952 187.026 80.2952 172.767C80.2952 158.508 68.7301 146.948 54.4639 146.948C40.1976 146.948 28.6326 158.508 28.6326 172.767C28.6326 187.026 40.1976 198.586 54.4639 198.586Z"
        fill="#3F3D56"
      />
      <path
        d="M54.4638 189.979C63.9746 189.979 71.6847 182.273 71.6847 172.767C71.6847 163.261 63.9746 155.554 54.4638 155.554C44.953 155.554 37.2429 163.261 37.2429 172.767C37.2429 182.273 44.953 189.979 54.4638 189.979Z"
        fill="white"
      />
      <path
        d="M239.048 160.488C235.685 152.011 223.927 126.111 202.984 117.538C202.822 117.471 202.654 117.428 202.482 117.404L135.316 107.789C134.211 107.631 133.178 108.387 133.001 109.491L131.824 116.759C131.743 117.256 131.848 117.768 132.12 118.193C135.531 123.481 157.392 159.384 122.386 159.384C87.3797 159.384 77.7312 134.344 76.2005 129.922C76.0569 129.506 76.0522 129.056 76.1813 128.636L86.7913 95.0471C86.9779 94.4494 86.8774 93.8374 86.5712 93.3497L91.2352 84.6908L99.7787 89.5247L104.204 89.5773L119.305 97.4664L122.381 92.4461L91.2352 76.9165C91.2352 76.9165 91.2878 73.321 81.2423 70.4522L65.4565 63.2803L63.5431 65.6709L68.3267 69.4959L68.805 72.3647L72.1535 73.321L78.8506 86.2304L76.9371 89.9311L79.2619 91.0643L78.597 90.9113C77.6355 90.6913 76.6549 91.1886 76.2626 92.0923L65.7101 116.266C65.5474 116.635 65.2795 116.95 64.9399 117.17L61.18 119.594C60.8308 119.819 60.5534 120.149 60.3955 120.536L56.0999 130.945C55.9659 131.27 55.9277 131.61 55.9611 131.939C50.6083 132.953 34.8751 137.333 26.2312 154.607L36.2767 162.736C36.2767 162.736 52.0243 152.552 78.0469 163.156C82.5722 170.194 89.1687 176.032 98.6976 176.582C123.816 178.036 165.433 179.47 170.217 173.733C173.718 169.53 176.153 166.91 177.21 165.805C177.584 165.418 178.091 165.193 178.626 165.174L237.201 163.305C238.622 163.262 239.564 161.818 239.043 160.498L239.048 160.488Z"
        fill="#982623"
      />
      <path
        d="M77.425 85.2693C81.652 85.2693 85.0787 81.8443 85.0787 77.6193C85.0787 73.3943 81.652 69.9692 77.425 69.9692C73.1979 69.9692 69.7712 73.3943 69.7712 77.6193C69.7712 81.8443 73.1979 85.2693 77.425 85.2693Z"
        fill="#3F3D56"
      />
      <path
        d="M199.995 117.572C199.904 117.572 199.813 117.572 199.722 117.567L135.727 115.09C132.895 114.98 130.47 113.178 129.547 110.5L128.672 107.952C127.959 105.877 128.27 103.649 129.523 101.846C130.781 100.044 132.762 98.9821 134.957 98.9295L201.076 97.4091C203.123 97.3613 205.094 98.2362 206.429 99.8141C207.763 101.392 208.309 103.457 207.921 105.489L206.673 112.03C206.056 115.277 203.267 117.567 199.99 117.567L199.995 117.572Z"
        fill="#3F3D56"
      />
      <path
        d="M54.4638 182.568C59.8797 182.568 64.2701 178.18 64.2701 172.767C64.2701 167.353 59.8797 162.965 54.4638 162.965C49.0479 162.965 44.6575 167.353 44.6575 172.767C44.6575 178.18 49.0479 182.568 54.4638 182.568Z"
        fill="#3F3D56"
      />
      <path
        d="M225.707 144.863C224.176 144.863 222.717 144.046 221.937 142.635L217.091 133.866C216.321 132.475 216.369 130.844 217.211 129.501C218.053 128.153 219.507 127.397 221.086 127.483L229.883 127.933C231.519 128.019 232.992 129.047 233.633 130.558L236.202 136.63C236.67 137.744 236.661 138.958 236.168 140.063C235.675 141.162 234.776 141.99 233.638 142.382L227.122 144.629C226.658 144.791 226.18 144.868 225.711 144.868L225.707 144.863Z"
        fill="#3F3D56"
      />
      <path
        d="M114.464 203.142C114.393 203.142 114.316 203.142 114.244 203.128L112.293 202.913C111.656 202.841 111.101 202.482 110.776 201.928C110.451 201.373 110.408 200.718 110.657 200.125L120.817 176.009C121.094 175.349 121.711 174.88 122.424 174.789C123.118 174.703 123.792 174.976 124.237 175.516C124.677 176.056 124.811 176.774 124.586 177.433L116.383 201.765C116.105 202.588 115.321 203.138 114.469 203.138L114.464 203.142Z"
        fill="#3F3D56"
      />
      <path
        d="M167.213 34.846C167.213 34.846 163.496 27.4159 164.238 20.7317L151.867 27.1386L152.346 39.3022L167.213 34.846Z"
        fill="#A0616A"
      />
      <path
        d="M159.535 30.5714C165.699 30.5714 170.695 25.5773 170.695 19.4167C170.695 13.2561 165.699 8.26196 159.535 8.26196C153.372 8.26196 148.375 13.2561 148.375 19.4167C148.375 25.5773 153.372 30.5714 159.535 30.5714Z"
        fill="#A0616A"
      />
      <path
        d="M170.935 194.565H164.123L160.884 168.311H170.935V194.565Z"
        fill="#A0616A"
      />
      <path
        d="M147.605 194.407C147.395 194.765 147.28 195.918 147.28 196.329C147.28 197.605 148.313 198.638 149.59 198.638H170.676C171.547 198.638 172.255 197.931 172.255 197.06V196.181C172.255 196.181 173.298 193.541 171.15 190.295C171.15 190.295 168.481 192.838 164.491 188.856L163.314 186.728L154.8 192.953L150.078 193.532C149.045 193.661 148.131 193.513 147.6 194.407H147.605Z"
        fill="#2F2E41"
      />
      <path
        d="M150.858 34.846L167.213 32.6179L179.851 38.5611L180.593 84.6239C180.593 84.6239 149.509 88.339 144.61 83.5099C139.712 78.6808 143.429 40.048 143.429 40.048L150.863 34.846H150.858Z"
        fill="#E6E6E6"
      />
      <path
        d="M156.742 22.2569H153.742C153.742 22.2569 151.14 19.0534 151.489 21.0042C151.839 22.955 150.437 25.0539 150.437 25.0539L148.337 24.3559C148.337 24.3559 144.137 6.6986 156.742 5.728C169.346 4.7574 172.15 14.559 172.15 14.559C172.15 14.559 171.451 19.4598 170.05 18.0589C168.648 16.658 160.946 15.9599 160.946 15.9599L156.746 22.2617L156.742 22.2569Z"
        fill="#2F2E41"
      />
      <path
        d="M148.806 188.664L142.257 190.51L132.001 166.13L141.673 163.4L148.806 188.664Z"
        fill="#A0616A"
      />
      <path
        d="M126.313 194.851C126.208 195.253 126.414 196.391 126.524 196.793C126.868 198.021 128.145 198.734 129.375 198.389L149.667 192.662C150.504 192.427 150.992 191.552 150.757 190.716L150.518 189.869C150.518 189.869 150.805 187.048 147.854 184.505C147.854 184.505 145.979 187.679 141.056 184.925L139.344 183.195L132.843 191.495L128.461 193.336C127.504 193.737 126.581 193.847 126.313 194.851Z"
        fill="#2F2E41"
      />
      <path
        d="M178.359 80.1677L180.588 86.9093V110.075L173.895 179.996H160.827L159.353 130.084L160.516 105.432L135.589 143.128L146.543 170.051L134.484 178.088C134.484 178.088 116.449 137.012 119.147 133.03C121.845 129.052 146.012 82.0659 146.012 82.0659C146.012 82.0659 178.349 80.9136 178.349 80.1725L178.359 80.1677Z"
        fill="#2F2E41"
      />
      <path
        d="M185.051 53.4211L188.643 59.3021C188.643 59.3021 193.723 79.2592 188.643 79.3405C183.563 79.4217 173.307 69.1707 173.307 69.1707L174.647 63.8204L178.363 65.3074L177.622 53.4211H185.056H185.051Z"
        fill="#A0616A"
      />
      <path
        d="M173.9 38.4701C173.9 38.4701 185.792 36.3759 186.907 44.1551C188.022 51.9342 188.643 59.3069 188.643 59.3069L175.756 60.3732L173.9 38.4701Z"
        fill="#E6E6E6"
      />
      <path
        d="M176.484 68.5195C177.559 67.0096 175.984 64.0433 172.965 61.894C169.946 59.7447 166.626 59.2264 165.55 60.7363C164.475 62.2462 166.05 65.2126 169.069 67.3618C172.088 69.5111 175.408 70.0294 176.484 68.5195Z"
        fill="#A0616A"
      />
      <path
        d="M279.461 146.685C277.949 146.847 276.299 147.091 274.543 147.45C267.105 148.966 266.947 154.015 267.014 155.172L266.961 155.138C266.215 156.338 265.746 157.553 265.459 158.695L265.12 143.218C265.34 142.759 265.54 142.238 265.708 141.708C266.263 143.424 267.176 145.04 267.966 144.935C268.989 144.796 269.434 141.784 269.243 139.647C270.544 141.32 272.735 143.113 273.563 142.559C274.223 142.119 273.83 140.302 273.113 138.648C274.615 139.551 276.28 140.144 276.796 139.57C277.499 138.786 275.811 136.113 274.256 134.622C276.337 134.818 278.987 134.483 279.164 133.536C279.308 132.757 277.729 131.772 276.04 131.136C277.734 130.691 279.322 129.912 279.269 129.142C279.207 128.229 276.854 127.612 274.821 127.521C276.351 126.326 277.758 124.667 277.327 123.921C276.93 123.233 275.093 123.5 273.395 124.108C274.4 122.673 275.108 121.052 274.567 120.498C273.897 119.809 271.52 121 269.894 122.315C270.209 120.264 270.051 117.677 269.128 117.443C268.358 117.247 267.267 118.753 266.521 120.393C266.191 118.671 265.521 117.036 264.751 117.036C263.651 117.036 262.761 120.35 262.761 122.511C262.761 122.635 262.761 122.75 262.771 122.86C262.661 122.731 262.532 122.597 262.388 122.458C260.838 120.952 257.839 119.283 257.069 120.072C256.533 120.627 257.236 122.243 258.241 123.682C256.543 123.075 254.701 122.807 254.309 123.496C253.778 124.418 256.05 126.728 257.896 127.847C257.786 127.832 257.667 127.823 257.542 127.813C255.385 127.665 252.017 128.33 251.941 129.424C251.888 130.194 253.472 130.974 255.17 131.418C253.481 132.054 251.907 133.039 252.046 133.818C252.218 134.765 254.868 135.1 256.954 134.904C255.399 136.396 253.711 139.068 254.414 139.852C254.93 140.426 256.595 139.833 258.097 138.93C257.375 140.584 256.987 142.401 257.648 142.841C258.518 143.424 260.915 141.392 262.173 139.647C262.044 141.784 262.556 144.72 263.57 144.834C263.995 144.882 264.445 144.428 264.852 143.735L263.704 160.369C263.436 162.305 265.153 163.572 265.306 164.366L265.555 175.631C265.273 174.827 264.899 174.005 264.388 173.192L264.335 173.226C264.402 172.069 264.244 167.02 256.806 165.504C255.05 165.145 253.4 164.902 251.888 164.739C250.104 164.548 249.405 166.991 251.018 167.78C253.352 168.923 255.548 170.362 256.696 172.064C259.623 176.42 263.665 173.905 264.244 173.513C264.885 174.584 265.306 175.659 265.574 176.683L265.708 182.664C265.674 182.807 265.655 182.884 265.65 182.889L265.713 182.908L266.033 197.386L268.989 197.362L267.932 182.564C268.109 181.765 268.655 179.045 267.932 176.224L266.875 164.596L265.497 160.025C265.698 158.609 266.162 157.022 267.109 155.449C267.683 155.841 271.73 158.361 274.658 154C275.801 152.298 278.002 150.859 280.336 149.716C281.948 148.927 281.255 146.484 279.465 146.675L279.461 146.685ZM265.957 180.938L265.899 178.404C266.009 179.36 266.004 180.226 265.957 180.938Z"
        fill="#D1D1D1"
      />
      <path
        d="M240.033 195.588L245.176 194.478L243.334 174.139L235.752 175.774L240.033 195.588Z"
        fill="#A0616A"
      />
      <path
        d="M257.618 191.672C257.838 191.906 258.11 192.757 258.177 193.073C258.388 194.034 257.775 194.985 256.809 195.191L240.894 198.629C240.239 198.772 239.588 198.351 239.445 197.696L239.301 197.032C239.301 197.032 238.081 195.21 239.172 192.408C239.172 192.408 241.602 193.895 243.96 190.233L244.501 188.435L251.944 191.744L255.599 191.414C256.398 191.342 257.067 191.079 257.613 191.672H257.618Z"
        fill="#2F2E41"
      />
      <path
        d="M249.227 194.034L253.513 190.993L243.817 173.015L237.488 177.5L249.227 194.034Z"
        fill="#A0616A"
      />
      <path
        d="M263.851 183.515C264.142 183.644 264.731 184.318 264.913 184.581C265.482 185.385 265.295 186.499 264.492 187.068L251.212 196.487C250.662 196.874 249.906 196.745 249.514 196.2L249.122 195.645C249.122 195.645 247.285 194.45 247.185 191.443C247.185 191.443 250.002 191.854 250.734 187.56L250.523 185.695L258.67 185.81L261.904 184.07C262.612 183.687 263.123 183.185 263.855 183.515H263.851Z"
        fill="#2F2E41"
      />
      <path
        d="M187.457 93.4596C187.457 93.4596 179.463 104.323 195.45 116.539L228.098 106.111L216.436 81.8029L206.108 76.1418L187.452 93.4549L187.457 93.4596Z"
        fill="#2F2E41"
      />
      <path
        d="M228.103 106.116L240.76 130.754L248.759 182.038L238.766 182.702L228.768 134.086L211.112 107.78L223.439 102.119"
        fill="#2F2E41"
      />
      <path
        d="M195.455 108.803V116.544L218.11 141.411C218.11 141.411 218.11 160.058 226.773 168.717L236.766 184.036L245.429 179.375L232.772 134.756L210.117 105.451L195.46 108.803H195.455Z"
        fill="#2F2E41"
      />
      <path
        d="M211.552 32.0681L207.285 48.3292L191.016 45.1305C191.016 45.1305 202.367 33.4307 200.77 28.0996L211.557 32.0681H211.552Z"
        fill="#A0616A"
      />
      <path
        d="M199.119 34.5208L209.112 39.1825C209.112 39.1825 214.255 42.3238 214.35 44.418C214.446 46.5122 213.776 56.5003 213.776 56.5003C213.776 56.5003 217.775 60.4974 215.111 68.487L216.445 81.8076L186.462 97.7914L189.126 69.8209L187.792 43.849L199.119 34.5255V34.5208Z"
        fill="#3F3D56"
      />
      <path
        d="M190.15 110.314C191.322 112.996 193.656 114.569 195.364 113.823C197.072 113.077 197.507 110.299 196.34 107.617C195.886 106.536 195.182 105.585 194.283 104.834L189.179 93.5266L183.922 96.032L189.509 106.914C189.447 108.081 189.667 109.247 190.15 110.314Z"
        fill="#A0616A"
      />
      <path
        d="M195.455 45.5129C195.455 45.5129 188.127 40.8512 185.462 46.1775C182.798 51.5039 176.799 78.8098 176.799 78.8098L185.462 104.782L193.455 101.454L186.457 73.5025L195.45 45.5129H195.455Z"
        fill="#3F3D56"
      />
      <path
        d="M233.021 106.12C235.097 108.186 237.847 108.788 239.163 107.464C240.478 106.14 239.856 103.4 237.78 101.334C236.962 100.498 235.953 99.8713 234.843 99.5032L225.931 90.8682L221.966 95.1331L231.169 103.19C231.543 104.299 232.179 105.303 233.021 106.116V106.12Z"
        fill="#A0616A"
      />
      <path
        d="M214.068 43.9208C214.068 43.9208 201.291 43.3997 200.775 49.3332C200.263 55.2668 208.998 81.7455 208.998 81.7455L226.625 102.702L232.829 96.6631L216.025 73.254L214.073 43.9208H214.068Z"
        fill="#3F3D56"
      />
      <path
        d="M176.656 92.0014L165.984 59.6178C157.354 52.0203 147.993 70.3183 122.865 59.9429L130.767 96.5723C149.767 86.3069 166.118 82.2858 176.656 92.0014Z"
        fill="white"
      />
      <path
        d="M130.767 97.5286C130.7 97.5286 130.628 97.5142 130.566 97.4855C130.427 97.4234 130.332 97.2991 130.298 97.1508L122.396 60.5215C122.357 60.3493 122.42 60.1676 122.558 60.0529C122.697 59.9381 122.884 59.9095 123.046 59.9764C137.32 65.8669 146.534 62.3622 153.264 59.7995C158.378 57.8535 162.415 56.3139 166.299 59.7325C166.361 59.7899 166.409 59.8616 166.438 59.9429L177.11 92.3265C177.177 92.5321 177.096 92.7616 176.914 92.8764C176.732 92.9959 176.488 92.972 176.33 92.8238C167.069 84.2844 152.661 85.757 130.997 97.4664C130.925 97.5047 130.848 97.5238 130.767 97.5238V97.5286ZM123.52 61.2004L131.097 96.3285C151.886 85.2024 166.127 83.4859 175.661 91.0069L165.563 60.3732C162.142 57.4471 158.55 58.8145 153.599 60.6984C146.854 63.2659 137.665 66.7658 123.52 61.2052V61.2004Z"
        fill="#3F3D56"
      />
      <path
        d="M139.415 44.1885L132.661 45.5846C132.661 45.5846 114.608 55.5153 118.023 59.2782C121.434 63.0411 135.933 63.524 135.933 63.524L138.927 58.8909L135.302 57.1936L144.496 49.6152L139.415 44.1885Z"
        fill="#A0616A"
      />
      <path
        d="M157.957 42.1087C157.957 42.1087 151.36 31.9963 144.917 36.5003C138.473 41.0042 132.666 45.5847 132.666 45.5847L140.693 55.7162L157.961 42.1087H157.957Z"
        fill="#E6E6E6"
      />
      <path
        d="M147.392 63.4188C147.76 61.6019 145.113 59.5334 141.48 58.7986C137.847 58.0637 134.604 58.9409 134.236 60.7578C133.868 62.5747 136.515 64.6433 140.148 65.3781C143.781 66.1129 147.024 65.2357 147.392 63.4188Z"
        fill="#A0616A"
      />
      <path
        d="M277.141 201.741C279.37 201.741 281.178 199.935 281.178 197.706C281.178 195.477 279.37 193.67 277.141 193.67C274.911 193.67 273.103 195.477 273.103 197.706C273.103 199.935 274.911 201.741 277.141 201.741Z"
        fill="#3F3D56"
      />
      <path
        d="M282.522 208C284.752 208 286.56 206.193 286.56 203.965C286.56 201.736 284.752 199.929 282.522 199.929C280.292 199.929 278.485 201.736 278.485 203.965C278.485 206.193 280.292 208 282.522 208Z"
        fill="#3F3D56"
      />
      <path
        d="M322.886 208C325.116 208 326.923 206.193 326.923 203.965C326.923 201.736 325.116 199.929 322.886 199.929C320.656 199.929 318.849 201.736 318.849 203.965C318.849 206.193 320.656 208 322.886 208Z"
        fill="#3F3D56"
      />
      <path
        d="M288.435 143.577V99.7568C288.435 94.8512 292.539 93.6367 297.447 93.6367C299.853 93.6367 301.02 93.3594 302.709 95.0711C304.398 96.7828 306.273 97.4952 306.234 99.9002L305.526 142.898L288.43 143.572L288.435 143.577ZM297.925 96.5103C293.544 96.5103 289.391 95.3819 289.391 99.7615V142.587L304.589 141.985L305.282 99.8906C305.316 97.7438 301.824 98.0403 300.322 96.5103C298.815 94.9803 300.078 96.5103 297.93 96.5103H297.925Z"
        fill="#3F3D56"
      />
      <path
        d="M276.418 143.046L275.806 190.921C275.797 191.538 275.945 192.145 276.232 192.691L280.757 201.235C281.422 202.492 282.752 203.252 284.173 203.19L323.905 201.44C325.938 201.349 327.512 199.628 327.421 197.596L324.929 142.932C324.838 140.967 323.221 139.417 321.25 139.417H280.097C278.083 139.417 276.442 141.038 276.414 143.051L276.418 143.046Z"
        fill="#E6E6E6"
      />
      <path
        d="M292.08 164.653L291.123 164.605L291.477 157.519C291.668 153.704 294.811 150.644 298.633 150.553L315.553 150.161C318.968 150.104 321.8 152.69 321.987 156.104L322.345 162.583L321.389 162.635L321.03 156.157C320.867 153.264 318.452 151.046 315.572 151.117L298.652 151.509C295.328 151.586 292.596 154.249 292.429 157.567L292.075 164.653H292.08Z"
        fill="#3F3D56"
      />
      <path
        d="M291.405 198.973L290.453 198.877L292.515 178.767C292.898 175.047 296.002 172.116 299.738 171.949L316.242 171.208C318.322 171.112 320.298 171.849 321.81 173.278C323.321 174.708 324.163 176.64 324.187 178.719L324.374 196.228L323.417 196.238L323.23 178.729C323.211 176.912 322.475 175.224 321.154 173.972C319.834 172.719 318.098 172.078 316.289 172.159L299.786 172.901C296.519 173.049 293.807 175.607 293.472 178.858L291.41 198.968L291.405 198.973Z"
        fill="#3F3D56"
      />
      <path
        d="M284.01 197.582L283.053 197.567L283.656 151.61C283.699 148.468 286.191 145.934 289.334 145.839L321.862 144.882L321.891 145.839L289.363 146.795C286.732 146.871 284.646 148.989 284.613 151.619L284.01 197.577V197.582Z"
        fill="#3F3D56"
      />
      <path
        d="M284.096 191.036H283.431V149.181C283.431 147.856 282.355 146.776 281.025 146.776H277.308V145.819H281.025C282.781 145.819 284.225 147.172 284.373 148.884C284.383 148.98 284.388 149.08 284.388 149.181V168.999L284.096 191.036Z"
        fill="#3F3D56"
      />
      <path
        d="M218.498 23.3757C218.498 29.5053 213.527 34.473 207.395 34.473C201.262 34.473 196.292 29.5053 196.292 23.3757C196.292 17.2461 201.262 12.2783 207.395 12.2783C213.527 12.2783 218.498 17.2461 218.498 23.3757Z"
        fill="#A0616A"
      />
      <path
        d="M206.51 8.45813C206.831 8.6446 207.261 8.3625 207.366 8.00391C207.472 7.64531 207.347 7.26759 207.232 6.91378C207.031 6.3209 206.835 5.7328 206.634 5.13992C206.209 3.88245 205.759 2.58194 204.841 1.62568C203.453 0.181736 201.243 -0.186422 199.258 0.0813294C196.709 0.425581 194.192 1.80259 193.006 4.08804C191.82 6.37349 192.327 9.55783 194.47 10.9826C191.413 14.4825 190.351 18.3841 190.519 23.0219C190.686 27.6645 195.747 31.9342 199.048 35.2046C199.784 34.7599 200.454 32.6657 200.047 31.9055C199.641 31.1453 200.224 30.2655 199.722 29.5627C199.22 28.8646 198.799 29.9787 199.306 29.2806C199.627 28.8407 198.378 27.8319 198.852 27.5689C201.152 26.2971 201.918 23.4283 203.362 21.2337C205.108 18.5849 208.089 16.7919 211.251 16.4955C212.992 16.3329 214.829 16.6293 216.254 17.6382C217.68 18.647 218.603 20.4496 218.273 22.1661C219.129 21.2959 219.555 20.024 219.397 18.8144C219.234 17.6047 218.493 16.4859 217.436 15.8691C218.077 13.751 217.527 11.3126 216.039 9.67736C214.551 8.03738 208.519 8.31947 206.347 8.74979L206.515 8.46291L206.51 8.45813Z"
        fill="#2F2E41"
      />
      <path
        d="M206.175 16.5576C203.3 16.8684 201.224 19.3594 199.469 21.6592C198.459 22.9837 197.397 24.4467 197.426 26.1154C197.45 27.7984 198.579 29.2471 199.119 30.8393C200 33.4499 199.143 36.5529 197.048 38.3411C199.119 38.7332 201.358 37.1841 201.712 35.1042C202.128 32.6897 200.296 30.3564 200.511 27.9132C200.703 25.7616 202.401 24.1073 203.841 22.496C205.285 20.8847 206.639 18.7522 205.974 16.6963L206.175 16.5576Z"
        fill="#2F2E41"
      />
    </g>
    <defs>
      <clipPath id="clip0_288_2300">
        <rect width="328" height="208" fill="white" />
      </clipPath>
    </defs>
  </svg>
