<svg width="400" height="400" viewBox="0 0 400 400" fill="none" xmlns="http://www.w3.org/2000/svg">
<path d="M0 123.227L135.618 62.846L151.69 98.9444C144.186 103.066 138.345 109.727 135.253 117.781C131.797 126.782 132.059 136.788 135.981 145.597C139.903 154.405 147.163 161.295 156.165 164.751C164.219 167.842 173.077 167.958 181.162 165.139L196.001 198.467L162.723 213.283C158.635 205.457 151.82 199.359 143.528 196.176C134.527 192.721 124.521 192.983 115.712 196.905C106.904 200.827 100.014 208.087 96.5584 217.089C93.3753 225.381 93.3467 234.525 96.4274 242.8L60.3825 258.848L43.1909 220.235C43.168 220.246 43.145 220.256 43.1221 220.266C27.8364 227.072 9.92774 220.197 3.12202 204.912C-3.68361 189.626 3.1909 171.717 18.4767 164.912C18.4996 164.901 18.5226 164.891 18.5455 164.881L0 123.227Z" fill="#FFFAE3"/>
<path d="M159.702 102.041L141.154 60.3815L179.765 43.1908C179.754 43.168 179.744 43.145 179.734 43.1222C172.928 27.8364 179.803 9.92783 195.089 3.12221C210.374 -3.68352 228.283 3.19099 235.089 18.4768C235.099 18.4996 235.109 18.5224 235.119 18.5454L276.773 0L337.155 135.621L301.11 151.67C297.021 143.843 290.207 137.746 281.915 134.563C272.913 131.107 262.907 131.369 254.099 135.291C245.29 139.213 238.4 146.473 234.945 155.475C231.762 163.767 231.733 172.911 234.814 181.186L201.536 196.003L184.219 157.109C183.329 157.619 182.405 158.089 181.447 158.515C166.161 165.321 148.253 158.446 141.447 143.16C140.597 141.25 139.96 139.298 139.526 137.332C136.492 123.571 143.427 109.115 156.802 103.16C157.759 102.734 158.727 102.361 159.702 102.041Z" fill="#FFFAE3"/>
<path d="M297.96 159.705L339.62 141.157L356.809 179.765C356.832 179.755 356.855 179.744 356.878 179.734C372.164 172.929 390.072 179.803 396.878 195.089C403.684 210.374 396.809 228.283 381.524 235.089C381.501 235.099 381.478 235.109 381.455 235.119L400 276.773L264.381 337.154L248.311 301.061C255.816 296.939 261.657 290.279 264.749 282.225C268.204 273.223 267.942 263.217 264.02 254.409C260.098 245.6 252.838 238.71 243.836 235.255C235.782 232.163 226.924 232.047 218.839 234.866L204.001 201.538L242.893 184.222C242.383 183.331 241.912 182.406 241.485 181.447C240.635 179.536 239.998 177.585 239.564 175.619C236.53 161.858 243.465 147.402 256.84 141.447C272.126 134.642 290.034 141.516 296.84 156.802C297.267 157.76 297.64 158.729 297.96 159.705Z" fill="#FFFAE3"/>
<path d="M240.298 297.96L258.846 339.619L220.235 356.809C220.246 356.832 220.256 356.855 220.266 356.878C227.072 372.164 220.197 390.072 204.912 396.878C189.626 403.684 171.717 396.809 164.911 381.524C164.901 381.501 164.891 381.478 164.881 381.455L123.227 400L62.847 264.384L104.493 245.842C104.011 244.991 103.566 244.11 103.16 243.198C102.31 241.288 101.673 239.336 101.239 237.37C98.2047 223.609 105.14 209.153 118.515 203.198C133.801 196.393 151.709 203.267 158.515 218.553C158.921 219.464 159.278 220.385 159.587 221.312L198.465 204.003L215.78 242.892C216.671 242.382 217.595 241.912 218.553 241.485C233.839 234.68 251.747 241.554 258.553 256.84C265.359 272.126 258.484 290.034 243.198 296.84C242.241 297.266 241.273 297.639 240.298 297.96Z" fill="#FFFAE3"/>
<path d="M200.362 193.365L201.536 196.003L234.814 181.187C231.733 172.911 231.762 163.767 234.945 155.475C238.4 146.473 245.29 139.213 254.099 135.291C262.907 131.369 272.913 131.107 281.915 134.563C283.588 135.205 285.202 135.966 286.744 136.836C282.598 121.971 274.671 108.275 263.553 97.1701C246.579 80.2173 223.557 70.6934 199.552 70.6934C182.541 70.6934 166.023 75.4763 151.801 84.2966L159.702 102.041C158.727 102.361 157.759 102.734 156.802 103.16C141.516 109.966 134.641 127.875 141.447 143.16C146.193 153.819 156.337 160.388 167.227 161.081C167.229 152.522 170.635 144.314 176.695 138.262C182.757 132.207 190.979 128.806 199.552 128.806C208.125 128.806 216.347 132.207 222.409 138.262C228.472 144.316 231.877 152.528 231.877 161.091C231.877 165.33 231.041 169.529 229.417 173.446C227.792 177.363 225.411 180.922 222.409 183.919C219.408 186.917 215.844 189.295 211.922 190.918C208.25 192.437 204.331 193.266 200.362 193.365Z" fill="#982623"/>
<path d="M193.478 192.8L196.001 198.467L162.723 213.283C158.635 205.457 151.82 199.359 143.528 196.176C134.526 192.721 124.521 192.983 115.712 196.905C115.706 196.907 115.7 196.91 115.694 196.913C111.535 184.486 109.041 172.344 109.041 161.091C109.041 137.116 118.577 114.123 135.551 97.1701C139.025 93.7005 142.752 90.5421 146.69 87.7127L151.69 98.9444C144.185 103.066 138.344 109.727 135.253 117.781C131.797 126.782 132.059 136.788 135.981 145.597C139.903 154.405 147.163 161.295 156.165 164.751C159.921 166.193 163.853 166.987 167.799 167.139C169.004 173.451 172.08 179.31 176.695 183.919C181.305 188.524 187.164 191.594 193.478 192.8Z" fill="#982623"/>
<path d="M118.014 203.427C140.881 264.096 199.552 328.971 199.552 328.971C199.552 328.971 230.562 294.682 256.28 252.648C248.309 240.353 232.361 235.338 218.553 241.485C217.595 241.912 216.67 242.382 215.78 242.892L198.465 204.003L159.587 221.312C159.278 220.385 158.92 219.464 158.515 218.553C151.709 203.267 133.8 196.393 118.515 203.198C118.347 203.273 118.18 203.349 118.014 203.427Z" fill="#982623"/>
<path d="M259.643 247.054C276.374 218.707 290.063 187.457 290.063 161.091C290.063 156.016 289.636 150.985 288.801 146.046C280.199 138.737 267.84 136.549 256.84 141.447C241.554 148.253 234.68 166.161 241.485 181.447C241.912 182.406 242.382 183.331 242.893 184.222L204.001 201.538L218.839 234.866C226.924 232.047 235.782 232.163 243.836 235.255C250.143 237.676 255.595 241.782 259.643 247.054Z" fill="#982623"/>
</svg>
